<svg width="40" height="40" viewBox="0 0 40 40" fill="none" xmlns="http://www.w3.org/2000/svg">
<path d="M40 24.2835V18.5684C39.7175 15.5507 37.5661 15.577 34.2857 15.7109V27.141C39.5522 27.6884 39.8198 25.6172 40 24.2835ZM5.7143 27.141V15.711C2.43383 15.5771 0.2825 15.5508 0 18.5685V24.2836C0.180156 25.6172 0.447812 27.6885 5.7143 27.1411V27.141ZM1.42859 34.2849H38.5714V40H1.42859V34.2849ZM25.65 5.70943C24.7495 -1.68548 15.4252 -2.11774 14.35 5.70943H25.65ZM1.67828 2.56725C2.44797 1.11475 4.51187 1.03006 5.38437 2.41514C6.13656 3.60904 5.52133 5.1335 4.28531 5.57373L4.2857 14.2821H2.85711V5.57771C1.68422 5.17053 1.0407 3.77037 1.67828 2.56725ZM27.1429 17.8539C27.1429 19.4977 25.3515 20.5305 23.9262 19.7086C22.5008 18.8868 22.5008 16.8211 23.9262 15.9993C25.3516 15.1774 27.1429 16.2102 27.1429 17.8539ZM13.9262 19.7086C15.3515 20.5305 17.1429 19.4977 17.1429 17.8539C17.1429 16.2102 15.3515 15.1774 13.9262 15.9993C12.5008 16.8211 12.5008 18.8868 13.9262 19.7086ZM32.8571 12.8532V32.8563H7.14297V12.8533C7.14297 9.69716 9.70156 7.13826 12.8572 7.13826H27.143C30.2987 7.13826 32.8572 9.69716 32.8572 12.8533L32.8571 12.8532ZM13.2102 20.9453C15.5859 22.315 18.5714 20.5936 18.5714 17.8541C18.5714 15.1147 15.5859 13.3932 13.2102 14.7629C10.8346 16.1327 10.8347 19.5756 13.2102 20.9453ZM27.1429 25.7124H12.857V28.5699H27.143V25.7124H27.1429ZM28.5714 17.8541C28.5714 15.1147 25.5859 13.3932 23.2102 14.7629C20.8346 16.1327 20.8347 19.5756 23.2102 20.9453C25.5859 22.315 28.5714 20.5936 28.5714 17.8541Z" fill="#33A9DC"/>
</svg>
