<svg width="32" height="36" viewBox="0 0 32 36" fill="none" xmlns="http://www.w3.org/2000/svg">
<path d="M3.37751 32.0013L0.570007 0.5H31.43L28.6188 31.9963L15.9813 35.5L3.37751 32.0013Z" fill="#1572B6"/>
<path d="M16 32.8225L26.2125 29.9912L28.615 3.07625H16V32.8225Z" fill="#33A9DC"/>
<path d="M16 14.4887H21.1125L21.465 10.5325H16V6.66875H25.6875L25.595 7.705L24.6462 18.3525H16V14.4887Z" fill="white"/>
<path d="M16.0238 24.5225L16.0063 24.5275L11.7038 23.365L11.4288 20.2838H7.55L8.09125 26.35L16.005 28.5475L16.0238 28.5425V24.5225Z" fill="#EBEBEB"/>
<path d="M20.7837 18.1888L20.3187 23.3625L16.01 24.525V28.545L23.93 26.35L23.9887 25.6975L24.66 18.1888H20.7837Z" fill="white"/>
<path d="M16.0137 6.66875V10.5325H6.68124L6.60374 9.66375L6.42749 7.705L6.33499 6.66875H16.0137Z" fill="#EBEBEB"/>
<path d="M16 14.4888V18.3525H11.7512L11.6737 17.4838L11.4988 15.525L11.4062 14.4888H16Z" fill="#EBEBEB"/>
</svg>
