<svg width="40" height="40" viewBox="0 0 40 40" fill="none" xmlns="http://www.w3.org/2000/svg">
<path d="M0 32.2864L0.333333 31.9478L16.0588 10.2125L16.0922 9.98253L9.16078 0.496383C9.03389 0.322914 8.83534 0.182907 8.59324 0.0961706C8.35113 0.00943412 8.07773 -0.0196406 7.8117 0.0130595C7.54566 0.0457596 7.30048 0.138579 7.11083 0.278386C6.92118 0.418194 6.79666 0.59791 6.7549 0.792111L0 32.2864Z" fill="#FFC24A"/>
<path d="M0.196045 32.0293L0.447025 31.6721L16.0098 10.1625L9.09604 0.639254C8.98203 0.473636 8.79744 0.339393 8.56991 0.256636C8.34239 0.17388 8.08419 0.147065 7.83399 0.180209C7.58379 0.213354 7.35507 0.304673 7.18209 0.440486C7.00911 0.576299 6.90118 0.749294 6.87448 0.933553L0.196045 32.0293Z" fill="#FFA712"/>
<path d="M21.1451 17.1572L26.3058 13.2998L21.1431 6.12665C21.0295 5.97227 20.8605 5.84323 20.6542 5.75328C20.4479 5.66332 20.212 5.61581 19.9715 5.61581C19.7311 5.61581 19.4952 5.66332 19.2889 5.75328C19.0826 5.84323 18.9136 5.97227 18.8 6.12665L16.0411 9.95825V10.2854L21.1451 17.1572Z" fill="#F4BD62"/>
<path d="M21.0529 17L26.0706 13.257L21.0529 6.28522C20.9708 6.13431 20.8305 6.00393 20.649 5.9098C20.4675 5.81567 20.2524 5.76181 20.0299 5.75471C19.8073 5.74761 19.5866 5.78758 19.3945 5.8698C19.2024 5.95201 19.047 6.07296 18.9471 6.21807L16.1745 10.1168L16.0922 10.3154L21.0529 17Z" fill="#FFA50E"/>
<path d="M0.00390625 32.2879L0.154887 32.1764L0.701945 32.015L20.8196 17.4115L21.0745 16.9057L16.0568 9.93683L0.00390625 32.2879Z" fill="#F6820C"/>
<path d="M21.7882 39.6525L40 32.2536L34.7961 8.92249C34.7588 8.75802 34.66 8.60421 34.5106 8.47797C34.3612 8.35172 34.1669 8.25791 33.9491 8.20684C33.7313 8.15576 33.4984 8.1494 33.276 8.18845C33.0536 8.22749 32.8502 8.31044 32.6882 8.42818L0 32.2864L18.1039 39.651C18.6667 39.8799 19.3006 40 19.9451 40C20.5896 40 21.2234 39.8799 21.7863 39.651" fill="#FDE068"/>
<path d="M39.8333 32.1921L34.6725 9.03676C34.6634 8.87945 34.5904 8.72764 34.4629 8.60055C34.3353 8.47347 34.1588 8.37681 33.9558 8.32282C33.7528 8.26882 33.5324 8.25992 33.3225 8.29724C33.1125 8.33456 32.9225 8.41642 32.7764 8.53245L0.196045 32.2421L18.1 39.5282C18.6583 39.7551 19.2871 39.8743 19.9264 39.8743C20.5658 39.8743 21.1945 39.7551 21.7529 39.5282L39.8333 32.1921Z" fill="#FCCA3F"/>
<path d="M21.7882 39.4296C21.2254 39.6584 20.5916 39.7785 19.9471 39.7785C19.3025 39.7785 18.6687 39.6584 18.1059 39.4296L0.149019 32.175L0 32.2864L18.1039 39.651C18.6667 39.8799 19.3006 40 19.9451 40C20.5896 40 21.2234 39.8799 21.7863 39.651L40 32.2535L39.9549 32.0535L21.7882 39.4296Z" fill="#EEAB37"/>
</svg>
