<svg width="40" height="40" viewBox="0 0 40 40" fill="none" xmlns="http://www.w3.org/2000/svg">
<path d="M39.2457 18.2181L21.7813 0.75435C20.7761 -0.25145 19.1449 -0.25145 18.1385 0.75435L14.5119 4.38098L19.1124 8.98153C20.1814 8.62028 21.4074 8.86262 22.2596 9.71483C23.1158 10.5725 23.3565 11.8089 22.9865 12.8814L27.4201 17.3153C28.4927 16.9457 29.7304 17.1848 30.5871 18.043C31.7844 19.2398 31.7844 21.1797 30.5871 22.3774C29.3894 23.5752 27.4496 23.5752 26.2513 22.3774C25.3507 21.4758 25.1282 20.1531 25.5841 19.0436L21.4494 14.9088L21.4489 25.7898C21.7487 25.938 22.0224 26.1338 22.2596 26.3695C23.4569 27.5664 23.4569 29.5064 22.2596 30.7051C21.0619 31.9023 19.1211 31.9023 17.9252 30.7051C16.7278 29.5064 16.7278 27.5666 17.9252 26.3697C18.2121 26.0826 18.5531 25.8552 18.9285 25.7007V14.7184C18.5526 14.5649 18.2114 14.3374 17.9252 14.0494C17.018 13.1435 16.7999 11.8124 17.2647 10.6984L12.7297 6.16289L0.754689 18.1373C-0.251563 19.1441 -0.251563 20.7755 0.754689 21.7815L18.2194 39.2455C19.2249 40.2515 20.8558 40.2515 21.8625 39.2455L39.2455 21.8626C40.2515 20.8563 40.2515 19.2239 39.2455 18.2181" fill="#DE4C36"/>
</svg>
