<svg width="30" height="30" viewBox="0 0 30 30" fill="none" xmlns="http://www.w3.org/2000/svg">
<path d="M26.7867 0H3.21526C1.44071 0 0.000976562 1.43973 0.000976562 3.21429V26.7857C0.000976562 28.5603 1.44071 30 3.21526 30H26.7867C28.5612 30 30.001 28.5603 30.001 26.7857V3.21429C30.001 1.43973 28.5612 0 26.7867 0ZM18.5702 25.6942C18.0077 25.7946 17.8001 25.4464 17.8001 25.1585C17.8001 24.7969 17.8135 22.9487 17.8135 21.4554C17.8135 20.4107 17.4653 19.7478 17.0568 19.3996C19.5345 19.125 22.1461 18.7835 22.1461 14.5045C22.1461 13.2857 21.7108 12.6763 21.001 11.8929C21.1148 11.6049 21.4965 10.4196 20.8871 8.87946C19.9563 8.59152 17.8269 10.0781 17.8269 10.0781C16.9429 9.83036 15.9854 9.70312 15.0412 9.70312C14.097 9.70312 13.1394 9.83036 12.2554 10.0781C12.2554 10.0781 10.126 8.59152 9.19517 8.87946C8.5858 10.4129 8.9608 11.5982 9.08133 11.8929C8.37151 12.6763 8.03669 13.2857 8.03669 14.5045C8.03669 18.7634 10.5345 19.125 13.0121 19.3996C12.6907 19.6875 12.4028 20.183 12.3023 20.8929C11.6662 21.1808 10.0389 21.6763 9.06794 19.9621C8.45856 18.904 7.36035 18.817 7.36035 18.817C6.27553 18.8036 7.28669 19.5 7.28669 19.5C8.0099 19.8348 8.51883 21.1205 8.51883 21.1205C9.16839 23.1094 12.2755 22.4397 12.2755 22.4397C12.2755 23.3705 12.2889 24.8839 12.2889 25.1585C12.2889 25.4464 12.088 25.7946 11.5188 25.6942C7.09919 24.2143 4.00544 20.0089 4.00544 15.0937C4.00544 8.94643 8.70633 4.27902 14.8537 4.27902C21.001 4.27902 25.9831 8.94643 25.9831 15.0937C25.9898 20.0089 22.9898 24.221 18.5702 25.6942ZM12.001 21.6027C11.8737 21.6295 11.7532 21.5759 11.7398 21.4888C11.7264 21.3884 11.8135 21.3013 11.9407 21.2746C12.0679 21.2612 12.1885 21.3147 12.2019 21.4018C12.222 21.4888 12.1349 21.5759 12.001 21.6027ZM11.3648 21.5424C11.3648 21.6295 11.2644 21.7031 11.1304 21.7031C10.9831 21.7165 10.8827 21.6429 10.8827 21.5424C10.8827 21.4554 10.9831 21.3817 11.117 21.3817C11.2443 21.3683 11.3648 21.442 11.3648 21.5424ZM10.4474 21.4688C10.4206 21.5558 10.2867 21.596 10.1729 21.5558C10.0456 21.529 9.95857 21.4286 9.98535 21.3415C10.0121 21.2545 10.1461 21.2143 10.2599 21.2411C10.3938 21.2812 10.4809 21.3817 10.4474 21.4688ZM9.62374 21.1071C9.56348 21.1808 9.43624 21.1674 9.3358 21.067C9.23535 20.9799 9.20857 20.8527 9.27553 20.7924C9.3358 20.7188 9.46303 20.7321 9.56348 20.8326C9.65053 20.9196 9.68401 21.0536 9.62374 21.1071ZM9.01437 20.4978C8.9541 20.5379 8.84026 20.4978 8.7666 20.3973C8.69294 20.2969 8.69294 20.183 8.7666 20.1362C8.84026 20.0759 8.9541 20.1228 9.01437 20.2232C9.08803 20.3237 9.08803 20.4442 9.01437 20.4978ZM8.5791 19.8482C8.51883 19.9085 8.41839 19.875 8.34473 19.808C8.27107 19.721 8.25767 19.6205 8.31794 19.5737C8.37821 19.5134 8.47865 19.5469 8.55232 19.6138C8.62598 19.7009 8.63937 19.8013 8.5791 19.8482ZM8.13044 19.3527C8.10365 19.4129 8.0166 19.4263 7.94294 19.3795C7.85589 19.3393 7.81571 19.2656 7.84249 19.2054C7.86928 19.1652 7.94294 19.1451 8.02999 19.1786C8.11705 19.2254 8.15723 19.2991 8.13044 19.3527Z" fill="black"/>
</svg>
