<svg width="32" height="36" viewBox="0 0 32 36" fill="none" xmlns="http://www.w3.org/2000/svg">
<path d="M3.37748 32.0013L0.568726 0.5H31.4312L28.6187 31.9963L15.9812 35.5L3.37748 32.0013Z" fill="#E44F26"/>
<path d="M16 32.8225L26.2125 29.9913L28.615 3.07626H16V32.8225Z" fill="#F1662A"/>
<path d="M16 14.7588H10.8875L10.535 10.8025H16V6.93875H6.31247L6.40497 7.97625L7.35372 18.6225H16V14.7588Z" fill="#EBEBEB"/>
<path d="M16 24.7925L15.9825 24.7975L11.68 23.6362L11.405 20.555H7.52621L8.06747 26.62L15.9825 28.8175L16 28.8125V24.7925Z" fill="#EBEBEB"/>
<path d="M15.9862 14.7588V18.6225H20.7437L20.2962 23.6338L15.9862 24.7963V28.8163L23.9075 26.62L23.965 25.9675L24.8725 15.7963L24.9675 14.7588H15.9862Z" fill="white"/>
<path d="M15.9862 6.93875V10.8025H25.3187L25.3962 9.935L25.5725 7.97625L25.665 6.93875H15.9862Z" fill="white"/>
</svg>
