<svg width="30" height="30" viewBox="0 0 30 30" fill="none" xmlns="http://www.w3.org/2000/svg">
<path d="M27.751 0H2.25098C1.00098 0 0.000976562 1.00418 0.000976562 2.13389V27.8661C0.000976562 28.9958 1.00098 30 2.25098 30H27.751C29.001 30 30.001 28.9958 30.001 27.8661V2.13389C30.001 1.00418 29.001 0 27.751 0ZM8.87598 25.6067H4.50098V11.2971H8.87598V25.6067ZM6.75098 9.2887C5.37598 9.2887 4.12598 8.159 4.12598 6.65272C4.12598 5.14644 5.25098 4.01674 6.75098 4.01674C8.12598 4.01674 9.37598 5.14644 9.37598 6.65272C9.37598 8.159 8.12598 9.2887 6.75098 9.2887ZM25.626 25.4812H21.251V18.4519C21.251 16.8201 21.251 14.5607 18.876 14.5607C16.501 14.5607 16.251 16.4435 16.251 18.2008V25.3556H11.876V11.2971H16.001V13.1799H16.126C16.751 12.0502 18.251 10.795 20.376 10.795C24.876 10.795 25.751 13.8075 25.751 17.6987V25.4812H25.626Z" fill="black"/>
</svg>
