<svg width="40" height="40" viewBox="0 0 40 40" fill="none" xmlns="http://www.w3.org/2000/svg">
<path d="M36.7656 31.2008C37.4305 31.6164 37.6469 32.4062 37.4023 33.1055C37.1969 33.693 36.6461 34.1547 36.0359 34.3711C33.7867 35.1672 32.5805 37.082 30.6492 38.2883C29.3492 39.1 27.7023 39.525 26.2 38.9617C25.414 38.6672 25.0055 38.0031 24.8601 37.2148C24.6961 36.3289 24.8601 35.2875 25.1976 34.4406C25.5797 33.4727 25.5406 32.4672 25.45 31.8234C25.4194 31.5915 25.3724 31.362 25.3094 31.1367C25.1165 30.2852 25.1887 29.3952 25.5164 28.5859C25.6278 28.3013 25.7979 28.0433 26.0156 27.8288C26.2334 27.6143 26.4939 27.4482 26.7803 27.3411C27.0666 27.2341 27.3722 27.1886 27.6773 27.2076C27.9823 27.2267 28.28 27.3098 28.5508 27.4516C28.1219 28.8578 28.4336 29.7547 29.4664 29.9516C30.6609 30.182 32.6555 29.5078 33.6851 27.7227C34.3609 27.6859 34.9516 28 35.2672 28.5594C35.6164 29.1766 35.4406 29.9727 35.8711 30.5437C36.0891 30.8383 36.4484 31.0023 36.7656 31.2008Z" fill="#FFBC5A"/>
<path d="M28.5508 27.4516C28.1387 27.2382 27.6699 27.1603 27.211 27.2289L27.2071 27.2039C28.6719 23.6055 26.6344 21.1367 24.5961 17.7953C22.5883 14.5031 23.4039 12.7172 23.4243 12.6641C23.95 12.2734 24.2907 11.8609 24.3375 11.5313C24.4649 10.6367 23.5102 10.4578 23.2555 10.3977C23.0899 10.3586 22.6805 10.3453 22.0977 10.1594C23.4258 8.84688 23.1914 7.17578 22.4883 6.57891C21.7852 5.98203 20.6414 5.98281 20.0664 7.17578C19.4914 8.36875 19.8024 9.1125 19.8024 9.1125C19.2609 8.93545 18.6847 8.89177 18.1227 8.98516L18.1008 8.84766C18.2625 8.24453 18.4133 7.68047 18.2868 7.06328C18.2395 6.81837 18.1269 6.59078 17.9609 6.40458C17.7949 6.21837 17.5817 6.08048 17.3438 6.00547C16.5625 5.75625 15.9586 6.33281 15.7196 6.98125C15.3844 7.89063 15.4969 8.97891 16.2618 9.67891L16.2657 9.68438C14.9969 10.5219 15.2977 11.65 15.2977 11.65C15.3664 12.1306 15.5665 12.5829 15.8758 12.957C15.8758 12.957 15.8711 15.5281 14.1516 17.6164C12.4321 19.7047 9.31253 24.5977 12.8782 26.9844C16.4438 29.3711 16.1196 32.0867 14.0219 32.3992C12.6094 30.5891 11.0852 27.4937 9.88597 26.6258C9.21488 26.1398 8.54378 26.2156 7.97034 26.5312L7.93675 26.4414C7.80159 24.4523 8.318 22.457 9.21019 20.6602C10.111 18.8453 11.5633 17.5187 12.7547 15.8945C13.4977 14.8789 13.761 13.6359 13.9024 12.4344C14.3852 8.33672 13.4532 1.44063 19.7407 1.33125C25.7563 1.22657 26.0508 6.30469 26.0875 7.65938C26.1243 9.01406 26.0875 12.1813 28.5375 14.3727C30.9875 16.5641 36.693 21.4633 33.8454 27.4148C33.7933 27.5216 33.7388 27.6258 33.6821 27.7273C32.6547 29.5125 30.6602 30.1867 29.4633 29.9562C28.4375 29.7547 28.125 28.857 28.5508 27.4516Z" fill="#767C93"/>
<path d="M24.5961 17.7953C26.6344 21.1367 28.6719 23.6055 27.207 27.2039L27.211 27.2289C26.8348 27.2881 26.4807 27.4444 26.1835 27.6824C25.8863 27.9204 25.6563 28.2318 25.5164 28.5859C25.1898 29.3955 25.1186 30.2856 25.3125 31.1367C25.3756 31.362 25.4226 31.5915 25.4531 31.8234V31.8234C24.9688 32.6649 22.4992 34.5617 19.3789 34.5617C16.3563 34.5617 14.8273 33.2734 14.7352 33.193L14.7305 33.1891C14.4767 32.9437 14.2416 32.6797 14.0273 32.3992V32.3992C16.125 32.0867 16.4492 29.3711 12.8836 26.9844C9.31797 24.5977 12.4383 19.7047 14.157 17.6164C15.8758 15.5281 15.8813 12.957 15.8813 12.957C16.6281 13.8375 17.9828 14.1227 19.6313 14.0367C21.0789 13.9586 22.5266 13.3383 23.4289 12.6641C23.4039 12.7149 22.5883 14.5031 24.5961 17.7953Z" fill="#F5F6F7"/>
<path d="M25.45 31.8234C25.5406 32.4672 25.5797 33.4727 25.1977 34.4406C24.8633 35.2875 24.6961 36.3289 24.8602 37.2148L24.6875 37.2469C20.9445 35.3969 16.4414 36.5914 16.4414 36.5914H16.4008C16.4414 35.6836 15.932 34.3211 14.7313 33.1945C14.8234 33.2727 16.3524 34.5633 19.375 34.5633C22.4953 34.5633 24.9649 32.6664 25.4492 31.825L25.45 31.8234Z" fill="#767C93"/>
<path d="M15.2992 11.65C15.2992 11.65 15 10.5219 16.2672 9.68751C16.4451 9.57088 16.6327 9.46998 16.8281 9.38594C17.2437 9.19795 17.6816 9.06405 18.1313 8.98751C18.6932 8.89411 19.2695 8.9378 19.8109 9.11485C20.2362 9.26162 20.6449 9.45251 21.0305 9.68438C21.37 9.8788 21.729 10.037 22.1016 10.1563C22.6844 10.3422 23.0938 10.3555 23.2594 10.3945C23.5141 10.4547 24.4688 10.6336 24.3414 11.5281C24.2945 11.8578 23.9508 12.268 23.4281 12.6609C22.5258 13.3352 21.0781 13.9578 19.6305 14.0336C17.9797 14.1195 16.625 13.8344 15.8805 12.9539C15.5705 12.581 15.3694 12.1298 15.2992 11.65V11.65Z" fill="#FFBC5A"/>
<path d="M22.4954 6.57813C23.1985 7.175 23.4282 8.84375 22.1047 10.1586C21.7319 10.0376 21.3729 9.87756 21.0336 9.68125C20.6481 9.44938 20.2394 9.25849 19.8141 9.11172C19.8141 9.11172 19.5016 8.36875 20.0782 7.175C20.6547 5.98125 21.7969 5.98203 22.4954 6.57813Z" fill="#F5F6F7"/>
<path d="M18.2953 7.0625C18.4203 7.67969 18.2711 8.24375 18.1094 8.84688L18.1313 8.98438C17.6816 9.06092 17.2437 9.19482 16.8281 9.38281C16.6328 9.46685 16.4451 9.56775 16.2672 9.68438L16.2633 9.67891C15.4985 8.97578 15.386 7.89063 15.7211 6.98125C15.9602 6.33282 16.5664 5.75625 17.3453 6.00547C17.5844 6.07934 17.799 6.21665 17.9663 6.40278C18.1336 6.58891 18.2473 6.8169 18.2953 7.0625V7.0625Z" fill="#F5F6F7"/>
<path d="M14.7313 33.193C15.9305 34.3195 16.4414 35.682 16.4008 36.5898C16.4003 36.8437 16.3277 37.0921 16.1914 37.3062C15.6813 38.0227 14.1531 39.7523 10.7789 38.3805C8.67382 37.5391 6.46754 36.9773 4.21642 36.7094C4.21642 36.7094 2.24299 36.7695 2.6883 34.6781C3.13361 32.5867 2.62502 31.8734 2.6883 31.0977C2.6883 31.0977 2.30627 29.0664 4.85314 28.8906C4.85314 28.8906 6.0633 28.95 6.57189 27.9953C6.84142 27.5 7.34845 26.875 7.96877 26.5312C8.5422 26.2187 9.2133 26.1406 9.88439 26.6258C11.0836 27.4937 12.6078 30.5891 14.0203 32.3992C14.2346 32.6797 14.4697 32.9437 14.7235 33.1891L14.7313 33.193Z" fill="#FFBC5A"/>
<g opacity="0.15">
<path opacity="0.15" d="M2.65627 34.2188C2.65627 34.2188 2.57815 35.625 4.37502 35.625C6.1719 35.625 9.6094 36.6406 10.8594 37.2656C12.1094 37.8906 15.625 38.2031 16.3282 35.7422C16.3282 35.7422 17.0649 38.0508 14.0399 38.7891C14.0399 38.7891 12.2656 39.1914 10.2344 38.2273C8.20315 37.2633 5.2344 36.6406 4.21877 36.7187C3.20315 36.7969 2.03127 36.0156 2.65627 34.2188Z" fill="#3F456B"/>
</g>
<g opacity="0.15">
<path opacity="0.15" d="M16.2415 35.5203C16.2415 35.5203 20.8079 34.2477 24.818 36.0305L24.8438 37.2656C24.8438 37.2656 21.6329 35.3703 16.4415 36.5914L16.2415 35.5203Z" fill="#3F456B"/>
</g>
<g opacity="0.15">
<path opacity="0.15" d="M24.8438 37.2656C24.8438 37.2656 25.9375 38.5937 28.5938 37.9687C28.5938 37.9687 30.1563 37.4219 31.5625 35.9375C32.9688 34.4531 34.2188 33.9062 35.3125 33.5156C36.4063 33.125 37.2656 32.5484 37.1875 31.5867C37.1875 31.5867 38.4758 33.3594 36.4641 34.1797C36.4641 34.1797 34.8039 34.6117 33.3391 36.1727C31.8742 37.7336 29.882 39.2195 27.8703 39.2195C25.8586 39.2195 25.1563 38.2812 24.8438 37.2656Z" fill="#3F456B"/>
</g>
<g opacity="0.25">
<path opacity="0.25" d="M34.1016 21.5234C34.1016 21.5234 34.9219 27.3437 30.0782 28.75C30.0782 28.75 28.6477 29.0578 28.4641 27.7711C28.4641 27.7711 27.7735 30.0367 29.9024 29.9805C32.0313 29.9242 35.7032 27.8125 34.1016 21.5234Z" fill="#3F456B"/>
</g>
<g opacity="0.25">
<path opacity="0.25" d="M15.4039 29.7656C15.4039 29.7656 14.8437 32.1094 12.8906 30.625L13.9844 32.4219C13.9844 32.4219 16.1984 32.0383 15.4039 29.7656Z" fill="#3F456B"/>
</g>
<g opacity="0.1">
<path opacity="0.1" d="M19.8438 3.4375C21.6128 3.4375 23.0469 2.9653 23.0469 2.38281C23.0469 1.80032 21.6128 1.32812 19.8438 1.32812C18.0747 1.32812 16.6406 1.80032 16.6406 2.38281C16.6406 2.9653 18.0747 3.4375 19.8438 3.4375Z" fill="white"/>
</g>
<g opacity="0.1">
<path opacity="0.1" d="M18.6328 11.0156C19.7331 11.0156 20.625 10.5434 20.625 9.96094C20.625 9.37845 19.7331 8.90625 18.6328 8.90625C17.5326 8.90625 16.6406 9.37845 16.6406 9.96094C16.6406 10.5434 17.5326 11.0156 18.6328 11.0156Z" fill="white"/>
</g>
<path d="M29.9461 30.3906C29.7603 30.3915 29.5748 30.3747 29.3922 30.3406C28.8266 30.2312 28.4062 29.9351 28.1766 29.4812C27.8016 28.7453 27.9422 27.6672 28.593 26.2781C29.4195 24.5117 28.0328 22.1828 28.0187 22.1594C27.965 22.0708 27.9486 21.9645 27.9732 21.8638C27.9978 21.7632 28.0614 21.6764 28.15 21.6226C28.2386 21.5689 28.3449 21.5525 28.4455 21.5771C28.5462 21.6017 28.6329 21.6653 28.6867 21.7539C28.7531 21.8633 30.3055 24.4617 29.3 26.6094C28.7719 27.7383 28.6195 28.6328 28.8726 29.1281C28.9922 29.3625 29.2109 29.5094 29.5406 29.5726C30.6344 29.7828 32.6117 29.0922 33.4937 27.2484C36.15 21.6937 30.9469 17.0484 28.4461 14.8164L28.2812 14.6633C25.8141 12.457 25.7406 9.35078 25.7031 7.86015L25.6977 7.67031C25.6594 6.26406 25.3641 5.07968 24.818 4.14375C23.8805 2.53437 22.2344 1.72187 19.9227 1.72187H19.7477C17.5656 1.75781 16.1797 2.62187 15.3906 4.43828C14.6789 6.06796 14.5648 8.23906 14.4641 10.1547C14.4203 10.9828 14.3789 11.7656 14.2953 12.4781C14.1664 13.5758 13.9102 14.982 13.0742 16.1242C12.6523 16.7016 12.1953 17.2437 11.7531 17.7648C10.9188 18.7555 10.1313 19.6914 9.56563 20.8328C8.6375 22.7016 8.21094 24.6305 8.33203 26.4117C8.33908 26.5153 8.30468 26.6175 8.2364 26.6957C8.16813 26.7739 8.07157 26.8219 7.96797 26.8289C7.86437 26.8359 7.76222 26.8015 7.68398 26.7333C7.60574 26.665 7.55783 26.5684 7.55078 26.4648C7.42032 24.5461 7.87422 22.4805 8.86406 20.4851C9.47266 19.2601 10.3273 18.2445 11.1547 17.2617C11.5883 16.7476 12.0367 16.2148 12.4438 15.6594C13.1672 14.6703 13.393 13.4484 13.5187 12.3836C13.5969 11.6961 13.6398 10.9258 13.6828 10.1102C13.7875 8.1289 13.9055 5.88203 14.6742 4.12187C15.5883 2.02422 17.2445 0.982028 19.7344 0.937497C22.4414 0.889059 24.3797 1.83672 25.4937 3.75C26.1055 4.80078 26.4367 6.1125 26.4789 7.64922L26.4836 7.84218C26.5164 9.22421 26.5844 12.1 28.7984 14.0812L28.9664 14.2312C30.2773 15.4031 32.2578 17.1687 33.6055 19.4336C35.257 22.2109 35.457 24.9531 34.1984 27.5836C33.7232 28.5786 32.9298 29.3868 31.9437 29.8805C31.3257 30.2013 30.6423 30.3758 29.9461 30.3906V30.3906Z" fill="#3F456B"/>
<path d="M27.6492 39.6094C27.1078 39.612 26.5703 39.517 26.0625 39.3289C25.7591 39.2157 25.4819 39.042 25.2478 38.8182C25.0137 38.5944 24.8276 38.3253 24.7008 38.0273C24.1781 36.8555 24.4274 35.3305 24.8344 34.2984C25.4055 32.8508 24.9399 31.2672 24.9352 31.2516L24.9281 31.225C24.7199 30.2942 24.7995 29.3221 25.1563 28.4375C25.2904 28.1037 25.4921 27.8012 25.7488 27.5491C26.0054 27.297 26.3115 27.1007 26.6477 26.9726C26.9842 26.8472 27.3434 26.7937 27.7019 26.8158C28.0604 26.8379 28.4103 26.935 28.7289 27.1008C28.7763 27.1229 28.8187 27.1544 28.8537 27.1933C28.8887 27.2321 28.9155 27.2776 28.9326 27.3271C28.9497 27.3765 28.9567 27.4289 28.9531 27.4811C28.9496 27.5332 28.9356 27.5842 28.912 27.6309C28.8884 27.6775 28.8557 27.719 28.8157 27.7528C28.7758 27.7866 28.7295 27.812 28.6796 27.8275C28.6296 27.8431 28.5771 27.8485 28.525 27.8433C28.473 27.8382 28.4225 27.8227 28.3766 27.7976C28.1543 27.6811 27.91 27.6125 27.6596 27.5964C27.4091 27.5802 27.1581 27.6168 26.9227 27.7039C26.6877 27.7939 26.4738 27.9316 26.2946 28.1083C26.1154 28.2849 25.9746 28.4968 25.8813 28.7305C25.5866 29.4618 25.5196 30.2651 25.6891 31.0351C25.7453 31.2258 26.2117 32.9367 25.5633 34.5812C25.125 35.693 25.0672 36.9203 25.4172 37.7062C25.5013 37.9094 25.6263 38.093 25.7846 38.2457C25.9428 38.3984 26.1307 38.5169 26.3367 38.5937C27.5609 39.0523 29.057 38.8195 30.4422 37.9547C31.182 37.4922 31.832 36.9031 32.4609 36.3336C33.4531 35.4351 34.4781 34.5055 35.9055 34.0008C36.4469 33.8086 36.8789 33.4156 37.0336 32.9742C37.2305 32.4109 37.0398 31.8305 36.5594 31.5305C36.493 31.4891 36.425 31.4523 36.357 31.4094C36.0844 31.2531 35.7758 31.0695 35.5562 30.7789C35.2664 30.393 35.1984 29.9453 35.1383 29.55C35.0937 29.2547 35.0516 28.975 34.925 28.7516C34.8034 28.5399 34.6239 28.3673 34.4076 28.2541C34.1913 28.1409 33.9472 28.0918 33.7039 28.1125C33.6003 28.1181 33.4987 28.0823 33.4215 28.013C33.3443 27.9437 33.2978 27.8466 33.2922 27.743C33.2866 27.6394 33.3224 27.5378 33.3917 27.4606C33.461 27.3834 33.5581 27.3368 33.6617 27.3312C34.4883 27.2875 35.2141 27.6742 35.6055 28.3664C35.8023 28.7148 35.8602 29.0961 35.9109 29.432C35.9633 29.7797 36.0086 30.0805 36.1805 30.3078C36.3055 30.4734 36.5219 30.6 36.7516 30.7344C36.8258 30.7781 36.9 30.8211 36.9727 30.8664C37.7586 31.357 38.0867 32.3297 37.7711 33.2312C37.5367 33.9008 36.9367 34.4633 36.1664 34.7359C34.8867 35.1891 33.9633 36.0258 32.9859 36.9117C32.3312 37.5047 31.6578 38.1172 30.8563 38.6164C29.8117 39.2719 28.7008 39.6094 27.6492 39.6094Z" fill="#3F456B"/>
<path d="M13.125 39.2867C12.4148 39.2867 11.5891 39.1305 10.6328 38.7398C8.56904 37.9187 6.40798 37.3673 4.20311 37.0992C4.02811 37.0992 3.15624 37.0633 2.62811 36.4305C2.25389 35.982 2.14764 35.3656 2.31092 34.5976C2.59452 33.2695 2.47421 32.5461 2.37733 31.9641C2.31893 31.6849 2.29271 31.4 2.29921 31.1148C2.2703 30.8984 2.21249 30.1172 2.72577 29.4523C3.16014 28.8891 3.86796 28.5695 4.82889 28.5023C4.8445 28.5012 4.86017 28.5012 4.87577 28.5023C5.06635 28.5041 5.25615 28.4778 5.43905 28.4242C5.80858 28.3148 6.07499 28.1117 6.23124 27.8172C6.61561 27.0969 7.41874 26.1766 8.41874 25.9422C9.0078 25.8062 9.59061 25.9344 10.1156 26.3117C10.9039 26.8828 11.7562 28.2398 12.6617 29.6766C13.45 30.9266 14.2641 32.2234 14.993 32.9062C15.7656 33.6305 16.3437 34.525 16.6195 35.4258C16.8851 36.293 16.8445 37.0617 16.5086 37.5351C15.9773 38.2812 14.9258 39.2867 13.125 39.2867ZM4.21874 36.318C4.23096 36.3172 4.24323 36.3172 4.25546 36.318C6.54392 36.5864 8.78666 37.1573 10.925 38.0156C13.668 39.1312 15.1289 38.1203 15.8719 37.0781C16.2023 36.6141 16.0031 34.9203 14.4586 33.4726C13.657 32.7211 12.818 31.3836 12.0008 30.0891C11.1758 28.7789 10.3234 27.4234 9.65702 26.9414C9.31483 26.693 8.96718 26.6148 8.5953 26.7008C7.90077 26.857 7.23983 27.5805 6.91952 28.1805C6.34139 29.2672 5.07811 29.2898 4.86483 29.2844C4.14999 29.3375 3.63983 29.5531 3.34921 29.925C2.97186 30.407 3.07499 31.025 3.07577 31.0312C3.08148 31.0648 3.08331 31.0988 3.08124 31.1328C3.07452 31.3689 3.09629 31.605 3.14608 31.8359C3.24842 32.4492 3.38749 33.2898 3.07342 34.7609C2.96249 35.282 3.01405 35.675 3.22967 35.9328C3.56014 36.3297 4.20389 36.3234 4.21092 36.3234L4.21874 36.318Z" fill="#3F456B"/>
<path d="M24.6875 37.6375C24.6276 37.6374 24.5685 37.6235 24.5148 37.5969C20.9516 35.8359 16.5852 36.957 16.5414 36.9719C16.4412 36.9984 16.3346 36.984 16.245 36.9319C16.1554 36.8799 16.0902 36.7943 16.0637 36.6941C16.0372 36.594 16.0515 36.4873 16.1036 36.3977C16.1557 36.3082 16.2412 36.2429 16.3414 36.2164C16.5312 36.1664 21.0289 35.007 24.857 36.9C24.9359 36.9391 24.9993 37.0037 25.0368 37.0833C25.0744 37.1629 25.084 37.2529 25.064 37.3387C25.044 37.4244 24.9956 37.5009 24.9267 37.5557C24.8578 37.6105 24.7724 37.6404 24.6844 37.6406L24.6875 37.6375Z" fill="#3F456B"/>
<path d="M19.375 34.9523C16.1422 34.9523 14.5313 33.5398 14.4656 33.4797C14.3896 33.4103 14.344 33.3137 14.3388 33.2108C14.3336 33.108 14.3692 33.0072 14.4379 32.9305C14.5065 32.8538 14.6027 32.8073 14.7055 32.8011C14.8083 32.795 14.9094 32.8297 14.9867 32.8976C15.0039 32.9133 16.4656 34.1711 19.375 34.1711C22.3758 34.1711 24.6937 32.3523 25.1109 31.6281C25.1364 31.5833 25.1705 31.544 25.2112 31.5125C25.2519 31.4809 25.2984 31.4577 25.3482 31.4442C25.3979 31.4307 25.4498 31.4272 25.5009 31.4338C25.5519 31.4405 25.6012 31.4571 25.6458 31.4829C25.6904 31.5087 25.7295 31.543 25.7608 31.5839C25.7921 31.6248 25.815 31.6715 25.8282 31.7213C25.8413 31.7711 25.8445 31.8231 25.8375 31.8741C25.8306 31.9251 25.8135 31.9743 25.7875 32.0187C25.1812 33.0711 22.5203 34.9523 19.375 34.9523Z" fill="#3F456B"/>
<path d="M19.0937 14.4414C18.0617 14.4414 17.2086 14.2781 16.5515 13.9547C15.6429 13.5062 15.0929 12.7586 14.9172 11.7312C14.7609 11.1148 14.9351 9.78359 16.6711 9.025C18.764 8.11015 20.0679 8.67968 21.2242 9.34218C21.8034 9.68381 22.4477 9.90068 23.1156 9.9789C23.2093 9.9914 23.2836 10.0016 23.35 10.0164L23.3812 10.0242C24.639 10.3102 24.8086 11.0312 24.7297 11.5867C24.5539 12.8234 21.8961 14.3109 19.6515 14.4273C19.4599 14.4372 19.2739 14.4419 19.0937 14.4414ZM18.7187 9.32968C18.2187 9.32968 17.6554 9.44687 16.9843 9.74062C16.3132 10.0344 15.8968 10.425 15.7343 10.9086C15.6612 11.1155 15.6426 11.3377 15.6804 11.5539C15.6804 11.5656 15.6851 11.5734 15.6875 11.5859C15.939 13.0969 17.2211 13.7734 19.6117 13.6469C20.589 13.5953 21.6804 13.2633 22.6062 12.7352C23.532 12.207 23.9265 11.6891 23.957 11.4758C24 11.1734 23.889 10.9406 23.2086 10.7859L23.1726 10.7773C23.1437 10.7711 23.0804 10.7617 23.0164 10.7531C22.249 10.6607 21.5089 10.4112 20.8422 10.0203C20.1773 9.64218 19.5312 9.32968 18.7187 9.32968V9.32968Z" fill="#3F456B"/>
<path d="M27.207 27.5945C27.143 27.5945 27.08 27.5787 27.0236 27.5486C26.9671 27.5186 26.9189 27.4751 26.8832 27.422C26.8475 27.3689 26.8253 27.3079 26.8187 27.2442C26.8121 27.1806 26.8212 27.1163 26.8453 27.057C28.0656 24.0586 26.6976 21.882 24.9648 19.1273C24.7359 18.7633 24.4961 18.3867 24.2617 17.9992C22.1367 14.5156 23.0359 12.5742 23.075 12.493C23.1233 12.4058 23.2031 12.3403 23.298 12.31C23.393 12.2797 23.4959 12.2869 23.5858 12.33C23.6756 12.3731 23.7456 12.449 23.7814 12.542C23.8171 12.6351 23.816 12.7383 23.7781 12.8305C23.7625 12.8672 23.0601 14.5312 24.9266 17.5961C25.1609 17.9789 25.3953 18.3531 25.6234 18.7156C27.4015 21.5437 28.9367 23.9859 27.5656 27.3547C27.536 27.4255 27.4862 27.4859 27.4224 27.5286C27.3587 27.5713 27.2837 27.5942 27.207 27.5945Z" fill="#3F456B"/>
<path d="M14.0227 32.7899C13.9246 32.789 13.8304 32.7514 13.7588 32.6843C13.6872 32.6172 13.6435 32.5257 13.6363 32.4278C13.6291 32.33 13.659 32.2331 13.72 32.1563C13.781 32.0795 13.8687 32.0284 13.9656 32.0133C14.6047 31.918 15.0406 31.5555 15.161 31.018C15.4547 29.7109 13.9985 28.2055 12.661 27.3086C11.6555 26.6359 11.0625 25.7273 10.8977 24.6078C10.7274 23.4516 11.0196 22.0922 11.7656 20.5656C12.3384 19.4252 13.0376 18.3529 13.85 17.3687C15.4555 15.4156 15.4852 12.9805 15.4852 12.9555C15.4852 12.8519 15.5263 12.7525 15.5996 12.6792C15.6728 12.606 15.7722 12.5648 15.8758 12.5648V12.5648C15.9794 12.5648 16.0788 12.606 16.152 12.6792C16.2253 12.7525 16.2664 12.8519 16.2664 12.9555C16.2664 13.0664 16.2406 15.6898 14.4531 17.8625C12.9117 19.7375 11.3719 22.4594 11.6711 24.4922C11.8039 25.3961 12.2696 26.1047 13.0953 26.657C15.1875 28.0578 16.2446 29.7508 15.9219 31.1883C15.7289 32.0477 15.0406 32.6414 14.0789 32.7844C14.0603 32.7877 14.0415 32.7895 14.0227 32.7899V32.7899Z" fill="#3F456B"/>
<path d="M22.1023 10.5469C22.0248 10.547 21.9489 10.5241 21.8845 10.481C21.82 10.4379 21.7698 10.3765 21.7403 10.3048C21.7108 10.2331 21.7034 10.1542 21.7188 10.0782C21.7343 10.0022 21.7721 9.93258 21.8273 9.87812C22.5929 9.12031 22.6828 8.33828 22.6672 7.93906C22.6507 7.4914 22.4875 7.07969 22.2414 6.87344C22.1096 6.75594 21.9529 6.66992 21.7831 6.62187C21.6132 6.57382 21.4347 6.56501 21.2609 6.59609C20.9148 6.66953 20.6265 6.92734 20.4273 7.34219C19.9484 8.33984 20.1648 8.94062 20.1742 8.96562C20.213 9.06118 20.2124 9.16819 20.1726 9.26332C20.1328 9.35845 20.057 9.43398 19.9617 9.47344C19.9141 9.4932 19.863 9.50333 19.8114 9.50326C19.7599 9.50318 19.7088 9.4929 19.6612 9.473C19.6137 9.4531 19.5705 9.42398 19.5342 9.38731C19.498 9.35065 19.4693 9.30716 19.45 9.25937C19.4117 9.1664 19.0929 8.3164 19.7234 7.0039C20.0265 6.37187 20.5148 5.95547 21.0984 5.83203C21.3893 5.77655 21.689 5.78794 21.9749 5.86536C22.2607 5.94278 22.5253 6.0842 22.7484 6.2789C23.1617 6.63047 23.4234 7.24062 23.4515 7.91015C23.4851 8.81953 23.1047 9.7164 22.3797 10.4336C22.3433 10.47 22.3001 10.4988 22.2524 10.5182C22.2048 10.5377 22.1538 10.5474 22.1023 10.5469V10.5469Z" fill="#3F456B"/>
<path d="M16.2625 10.0695C16.165 10.0694 16.0711 10.0329 15.9992 9.96718C15.1836 9.22109 14.9305 7.99609 15.3547 6.84609C15.4977 6.44093 15.7603 6.0887 16.1078 5.83593C16.302 5.69798 16.5261 5.60776 16.7617 5.57261C16.9974 5.53745 17.238 5.55834 17.464 5.63359C17.7695 5.72846 18.0436 5.90417 18.2573 6.1421C18.471 6.38003 18.6164 6.67133 18.6781 6.98515C18.8226 7.69687 18.6515 8.33281 18.4867 8.94843C18.4534 9.04009 18.3871 9.116 18.3007 9.16123C18.2143 9.20647 18.1142 9.21776 18.0199 9.1929C17.9256 9.16803 17.844 9.1088 17.7912 9.02684C17.7384 8.94489 17.7181 8.84614 17.7344 8.74999C17.8906 8.17343 18.0226 7.67578 17.9148 7.14453C17.8812 6.96683 17.7995 6.80178 17.6785 6.66733C17.5576 6.53288 17.402 6.4342 17.2289 6.38203C16.6172 6.18593 16.225 6.7539 16.0898 7.12031C15.7773 7.97109 15.9484 8.86328 16.5289 9.39453C16.587 9.44769 16.6277 9.51719 16.6457 9.59391C16.6636 9.67063 16.6579 9.75098 16.6294 9.82441C16.6008 9.89784 16.5507 9.96091 16.4856 10.0054C16.4206 10.0498 16.3436 10.0735 16.2648 10.0734L16.2625 10.0695Z" fill="#3F456B"/>
<path d="M18.3727 13.2031C17.887 13.205 17.4034 13.139 16.9359 13.007C15.6859 12.6523 15.0359 11.9383 15.0086 11.9078C14.9742 11.8697 14.9477 11.8252 14.9305 11.7768C14.9134 11.7285 14.9059 11.6772 14.9085 11.6259C14.9112 11.5747 14.9239 11.5244 14.946 11.4781C14.968 11.4318 14.999 11.3902 15.0371 11.3559C15.0752 11.3215 15.1197 11.295 15.1681 11.2778C15.2165 11.2606 15.2677 11.2532 15.319 11.2558C15.3702 11.2584 15.4205 11.2712 15.4668 11.2932C15.5132 11.3153 15.5547 11.3463 15.5891 11.3844C15.6805 11.4844 17.8141 13.7281 21.9805 11.3062C22.0249 11.2769 22.0749 11.2569 22.1273 11.2476C22.1797 11.2383 22.2335 11.2397 22.2853 11.2519C22.3371 11.2641 22.3859 11.2868 22.4287 11.3185C22.4714 11.3503 22.5072 11.3904 22.5339 11.4365C22.5606 11.4826 22.5775 11.5336 22.5837 11.5865C22.59 11.6394 22.5853 11.693 22.5701 11.744C22.5548 11.795 22.5293 11.8424 22.4951 11.8832C22.4609 11.924 22.4187 11.9574 22.3711 11.9812C21.3383 12.5883 19.9023 13.2031 18.3727 13.2031Z" fill="#3F456B"/>
<path d="M16.9945 8.59374H16.9109C16.8073 8.59374 16.708 8.55259 16.6347 8.47933C16.5615 8.40607 16.5203 8.30672 16.5203 8.20312C16.5203 8.09952 16.5615 8.00016 16.6347 7.9269C16.708 7.85365 16.8073 7.81249 16.9109 7.81249H16.9945C17.0981 7.81249 17.1975 7.85365 17.2708 7.9269C17.344 8.00016 17.3852 8.09952 17.3852 8.20312C17.3852 8.30672 17.344 8.40607 17.2708 8.47933C17.1975 8.55259 17.0981 8.59374 16.9945 8.59374V8.59374Z" fill="#3F456B"/>
<path d="M21.257 8.90624H21.1719C21.0683 8.90624 20.9689 8.86509 20.8957 8.79183C20.8224 8.71857 20.7812 8.61922 20.7812 8.51562C20.7812 8.41202 20.8224 8.31266 20.8957 8.2394C20.9689 8.16615 21.0683 8.12499 21.1719 8.12499H21.2555C21.3591 8.12499 21.4584 8.16615 21.5317 8.2394C21.6049 8.31266 21.6461 8.41202 21.6461 8.51562C21.6461 8.61922 21.6049 8.71857 21.5317 8.79183C21.4584 8.86509 21.3591 8.90624 21.2555 8.90624H21.257Z" fill="#3F456B"/>
</svg>
