<svg width="40" height="40" viewBox="0 0 40 40" fill="none" xmlns="http://www.w3.org/2000/svg">
<path d="M18.69 0.0102066C18.6033 0.0185385 18.33 0.0468669 18.0833 0.0651971C12.4033 0.578442 7.08333 3.64292 3.71 8.35377C1.84717 10.9395 0.6362 13.9367 0.18 17.0906C0.02 18.1904 0 18.5137 0 20.0034C0 21.4932 0.02 21.8181 0.18 22.9163C1.26667 30.4266 6.61333 36.7356 13.8617 39.0735C15.16 39.4918 16.5283 39.7767 18.0833 39.95C18.69 40.0167 21.31 40.0167 21.9167 39.95C24.6017 39.6517 26.8783 38.9868 29.1217 37.842C29.4667 37.6671 29.5333 37.6187 29.4867 37.5804C29.4533 37.5571 27.9883 35.5908 26.2283 33.2145L23.03 28.8936L19.0233 22.9629C17.6902 20.9793 16.3446 19.004 14.9867 17.0373C14.9717 17.0323 14.9567 19.6668 14.9483 22.8863C14.9367 28.5186 14.9317 28.7453 14.8617 28.8786C14.7934 29.0342 14.6716 29.1601 14.5183 29.2335C14.3933 29.2968 14.285 29.3085 13.6933 29.3085H13.0167L12.8367 29.1952C12.7253 29.1249 12.6349 29.0259 12.575 28.9086L12.4917 28.7336L12.5 20.8949L12.5117 13.053L12.6333 12.8997C12.7152 12.8038 12.8134 12.7231 12.9233 12.6614C13.0833 12.583 13.145 12.5764 13.8233 12.5764C14.62 12.5764 14.7533 12.6064 14.96 12.833C15.0183 12.8963 17.1883 16.1658 19.785 20.1018L27.675 32.053L30.8417 36.8489L31.0033 36.7439C32.5273 35.7309 33.909 34.5187 35.1117 33.1395C37.6319 30.2555 39.2667 26.7059 39.82 22.9163C39.98 21.8165 40 21.4932 40 20.0034C40 18.5137 39.98 18.1904 39.82 17.0906C38.7333 9.58189 33.3867 3.27131 26.1383 0.933381C24.7836 0.502737 23.3887 0.210734 21.975 0.0618644C21.5983 0.0218712 19.015 -0.0214546 18.6917 0.011873L18.69 0.0102066ZM26.8783 12.1081C26.9713 12.1549 27.054 12.2197 27.1218 12.2986C27.1896 12.3775 27.2411 12.4691 27.2733 12.568C27.3033 12.668 27.3117 14.8427 27.3033 19.7418L27.2917 26.7706L26.0533 24.8709L24.81 22.9713V17.8621C24.81 14.5577 24.825 12.7014 24.8483 12.6114C24.8761 12.5073 24.9246 12.4099 24.9911 12.3251C25.0576 12.2403 25.1405 12.1699 25.235 12.1181C25.3967 12.0348 25.455 12.0281 26.0683 12.0281C26.6467 12.0281 26.7483 12.0365 26.8783 12.1065V12.1081Z" fill="#A3CEDB"/>
</svg>
