<svg width="40" height="40" viewBox="0 0 40 40" fill="none" xmlns="http://www.w3.org/2000/svg">
<path d="M32 12.6667H26V8H28.6667V0H20.6667V2.66667H8V0H0V8H2.66667V20.6667H0V28.6667H8V26H14V32H11.3333V40H19.3333V37.3333H32V40H40V32H37.3333V18H40V10H32V12.6667ZM23.3333 2.66667H26V5.33333H23.3333V2.66667ZM26 23.3333V26H23.3333V23.3333H26ZM2.66667 2.66667H5.33333V5.33333H2.66667V2.66667ZM5.33333 26H2.66667V23.3333H5.33333V26ZM8 23.3333V20.6667H5.33333V8H8V5.33333H20.6667V8H23.3333V20.6667H20.6667V23.3333H8ZM16.6667 37.3333H14V34.6667H16.6667V37.3333ZM37.3333 37.3333H34.6667V34.6667H37.3333V37.3333ZM34.6667 12.6667H37.3333V15.3333H34.6667V12.6667ZM34.6667 32H32V34.6667H19.3333V32H16.6667V26H20.6667V28.6667H28.6667V20.6667H26V15.3333H32V18H34.6667V32Z" fill="#FFC331"/>
</svg>
