<svg width="40" height="40" viewBox="0 0 40 40" fill="none" xmlns="http://www.w3.org/2000/svg">
<path d="M5.45255 10.9015C8.46391 10.9015 10.9051 8.4618 10.9051 5.45231C10.9051 2.44282 8.46391 0.00314713 5.45255 0.00314713C2.44119 0.00314713 0 2.44282 0 5.45231C0 8.4618 2.44119 10.9015 5.45255 10.9015Z" fill="#FFE600"/>
<path d="M25.4633 20.0016C25.461 18.878 25.1102 17.7828 24.4592 16.8667C23.8082 15.9507 22.889 15.2589 21.8282 14.8866V10.5636C22.5856 10.2917 23.2732 9.85508 23.8411 9.28526C24.4091 8.71544 24.8433 8.02667 25.1125 7.26869H29.4145C29.685 8.02902 30.1215 8.71958 30.6924 9.29016C31.2634 9.86074 31.9544 10.297 32.7152 10.5673V14.8903C31.5031 15.3218 30.4826 16.1677 29.8343 17.2784C29.1859 18.3891 28.9513 19.6932 29.172 20.96C29.3927 22.2269 30.0544 23.375 31.0402 24.2014C32.026 25.0278 33.2725 25.4793 34.5592 25.4761C35.8459 25.4729 37.09 25.0152 38.0717 24.1838C39.0534 23.3525 39.7093 22.2011 39.9237 20.9332C40.138 19.6652 39.8969 18.3624 39.243 17.2549C38.5891 16.1474 37.5644 15.3066 36.3502 14.8812V10.5654C37.218 10.2607 37.9943 9.741 38.6065 9.05497C39.2187 8.36895 39.6469 7.53898 39.851 6.64266C40.055 5.74634 40.0284 4.81294 39.7734 3.92971C39.5185 3.04649 39.0437 2.24229 38.3933 1.5923C37.7429 0.942304 36.9382 0.467739 36.0544 0.21297C35.1706 -0.0417987 34.2366 -0.0684517 33.3398 0.135502C32.4429 0.339456 31.6124 0.767357 30.9259 1.3792C30.2395 1.99105 29.7195 2.76686 29.4145 3.6341H25.1125C24.807 2.76637 24.2863 1.99028 23.5989 1.37849C22.9116 0.766701 22.0802 0.33921 21.1825 0.136036C20.2848 -0.0671384 19.3502 -0.0393507 18.4661 0.216797C17.5821 0.472945 16.7776 0.949077 16.1278 1.60062C15.4781 2.25217 15.0044 3.05782 14.7511 3.94216C14.4978 4.82651 14.4732 5.76062 14.6796 6.65706C14.8859 7.5535 15.3165 8.38296 15.931 9.06778C16.5456 9.7526 17.3239 10.2704 18.1932 10.5727V14.8848C17.1316 15.2556 16.2117 15.947 15.5607 16.8635C14.9098 17.7799 14.5602 18.8759 14.5602 19.9998C14.5602 21.1236 14.9098 22.2196 15.5607 23.136C16.2117 24.0525 17.1316 24.7439 18.1932 25.1147V29.4286C17.4273 29.6974 16.7314 30.1344 16.1567 30.7075C15.5821 31.2805 15.1433 31.975 14.8726 32.7399H10.5742C10.3044 31.9778 9.86777 31.2855 9.29612 30.7136C8.72446 30.1416 8.03222 29.7045 7.26993 29.4341V25.1201C8.48337 24.6953 9.50749 23.8555 10.1613 22.7491C10.8151 21.6426 11.0564 20.3408 10.8427 19.0738C10.6291 17.8067 9.97404 16.6559 8.99348 15.8248C8.01291 14.9936 6.76992 14.5357 5.48418 14.5318C4.19844 14.528 2.95272 14.9785 1.96719 15.8037C0.98165 16.6289 0.319743 17.7758 0.0984441 19.0415C-0.122855 20.3073 0.110702 21.6105 0.757838 22.7209C1.40497 23.8312 2.42403 24.6772 3.6349 25.1092V29.4322C2.76768 29.7371 1.99192 30.2566 1.38006 30.9423C0.76819 31.628 0.34018 32.4574 0.135997 33.3532C-0.0681862 34.249 -0.0418819 35.1819 0.212453 36.0647C0.466788 36.9476 0.940857 37.7517 1.59039 38.4018C2.23992 39.052 3.04373 39.527 3.92674 39.7826C4.80976 40.0381 5.74318 40.0659 6.63984 39.8632C7.53649 39.6606 8.36714 39.2341 9.0542 38.6237C9.74125 38.0133 10.2623 37.2389 10.5687 36.3727H14.8762C15.1822 37.2382 15.7025 38.0122 16.3887 38.6225C17.0748 39.2328 17.9044 39.6596 18.8001 39.863C19.6958 40.0664 20.6285 40.0398 21.5111 39.7857C22.3938 39.5316 23.1977 39.0582 23.8479 38.4098C24.498 37.7614 24.9733 36.959 25.2295 36.0774C25.4856 35.1958 25.5141 34.2638 25.3125 33.3682C25.1109 32.4727 24.6856 31.6427 24.0763 30.9557C23.4671 30.2687 22.6937 29.7471 21.8282 29.4395V25.1165C22.8893 24.7441 23.8087 24.0521 24.4597 23.1357C25.1107 22.2193 25.4614 21.1236 25.4633 19.9998V20.0016Z" fill="#FFE600"/>
<path d="M34.5328 40C37.5442 40 39.9854 37.5603 39.9854 34.5508C39.9854 31.5413 37.5442 29.1017 34.5328 29.1017C31.5214 29.1017 29.0803 31.5413 29.0803 34.5508C29.0803 37.5603 31.5214 40 34.5328 40Z" fill="#FFE600"/>
</svg>
