<svg width="40" height="40" viewBox="0 0 40 40" fill="none" xmlns="http://www.w3.org/2000/svg">
<path d="M32.888 12.9648C32.4623 12.8007 32.033 12.6486 31.6005 12.5087C31.6731 12.1751 31.74 11.8454 31.7994 11.5216C32.7741 6.20368 32.1369 1.91948 29.9605 0.508911C27.8737 -0.843349 24.4611 0.566689 21.0145 3.93803C20.6749 4.27089 20.3427 4.61333 20.0184 4.96505C19.8013 4.73117 19.5804 4.50183 19.3558 4.27715C15.7436 0.672412 12.123 -0.846862 9.94891 0.567743C7.86406 1.92422 7.24672 5.95167 8.12422 10.9916C8.21152 11.4907 8.31009 11.9873 8.41984 12.4808C7.90734 12.6445 7.41281 12.8187 6.93953 13.0041C2.70453 14.6637 0 17.2645 0 19.9621C0 22.7483 2.90344 25.5429 7.31437 27.2375C7.67198 27.3743 8.03256 27.5011 8.39578 27.6177C8.27782 28.1492 8.17309 28.6844 8.08172 29.2225C7.24516 34.1749 7.89844 38.1072 9.97766 39.4551C12.1252 40.847 15.7295 39.4164 19.2391 35.9682C19.5236 35.6878 19.802 35.3995 20.0737 35.1036C20.4249 35.4844 20.7855 35.8542 21.155 36.2124C24.5547 39.5004 27.9122 40.828 29.9894 39.4765C32.1348 38.0805 32.8322 33.8562 31.9269 28.7167C31.8556 28.3141 31.7756 27.9134 31.687 27.5151C31.9402 27.4308 32.1886 27.3441 32.4308 27.2538C37.0164 25.5463 40 22.7856 40 19.9621C40 17.2546 37.2081 14.6363 32.888 12.9648ZM31.8934 25.4309C31.6747 25.5122 31.4503 25.5907 31.2216 25.6671C30.7153 23.8658 30.0322 21.9505 29.1961 19.9714C29.9939 18.0396 30.6508 16.1488 31.1428 14.3592C31.552 14.4923 31.9491 14.6327 32.3319 14.7807C36.0334 16.213 38.2912 18.3305 38.2912 19.9621C38.2912 21.7001 35.8528 23.9562 31.8934 25.4309ZM30.2506 29.0897C30.6509 31.3622 30.708 33.417 30.4428 35.0233C30.2047 36.4667 29.7256 37.429 29.1331 37.8144C27.8727 38.6346 25.1769 37.5686 22.2695 34.7566C21.9258 34.4235 21.5904 34.0797 21.2638 33.7257C22.3909 32.3402 23.5173 30.7296 24.6167 28.9408C26.5505 28.748 28.3773 28.4326 30.0341 28.0021C30.1156 28.3721 30.1881 28.735 30.2506 29.0897ZM13.6369 37.6727C12.4053 38.1615 11.4244 38.1755 10.8314 37.7913C9.56969 36.9734 9.04516 33.816 9.76062 29.5807C9.84567 29.0803 9.94306 28.5826 10.0527 28.0882C11.6911 28.4956 13.5047 28.7885 15.443 28.9652C16.5498 30.7156 17.7087 32.3244 18.8767 33.7332C18.6285 34.0032 18.3744 34.2662 18.1147 34.5221C16.5627 36.0468 15.0075 37.1286 13.6369 37.6727ZM7.86719 25.4202C5.91672 24.6708 4.30594 23.697 3.20188 22.6343C2.20969 21.6795 1.70891 20.7313 1.70891 19.9621C1.70891 18.325 3.88031 16.2369 7.50203 14.8178C7.94156 14.6456 8.40156 14.4832 8.87891 14.3308C9.37953 16.1607 10.0361 18.0741 10.8284 20.0089C10.0258 21.9723 9.35984 23.9162 8.85437 25.7677C8.52283 25.661 8.19367 25.5451 7.86719 25.4202ZM9.80125 10.6226C9.04953 6.30466 9.54875 3.04747 10.8052 2.22997C12.1433 1.35925 15.1023 2.6007 18.2212 5.71336C18.4246 5.91679 18.6247 6.12435 18.8214 6.33592C17.6592 7.73858 16.5109 9.33548 15.4139 11.0755C13.5327 11.2715 11.7319 11.5862 10.0763 12.0079C9.97425 11.5488 9.88255 11.087 9.80125 10.6228V10.6226ZM27.0555 15.4113C26.6644 14.6521 26.2589 13.9025 25.8391 13.1629C27.1153 13.3443 28.3381 13.5851 29.4864 13.8794C29.1417 15.1214 28.712 16.4197 28.2063 17.7509C27.8366 16.9625 27.4529 16.1825 27.0555 15.4113ZM20.0192 7.70855C20.8073 8.66831 21.5967 9.73975 22.3731 10.9023C20.7981 10.8187 19.2205 10.8184 17.6455 10.9013C18.4227 9.74941 19.2188 8.67937 20.0192 7.70855ZM12.9378 15.4245C12.5454 16.1895 12.1689 16.9646 11.8086 17.7493C11.3111 16.4229 10.8853 15.1186 10.5377 13.8591C11.6789 13.5721 12.8959 13.3375 14.1641 13.1594C13.7396 13.9035 13.3307 14.6587 12.9378 15.4243V15.4245ZM14.2005 26.9015C12.8903 26.7371 11.655 26.5146 10.5141 26.2354C10.8672 24.9534 11.3023 23.6213 11.8106 22.2664C12.1723 23.0517 12.5504 23.8274 12.9445 24.5927C13.3498 25.3794 13.7695 26.15 14.2005 26.9015ZM20.0664 32.351C19.2564 31.3689 18.4486 30.2823 17.6597 29.1138C18.4256 29.1475 19.2064 29.1647 20 29.1647C20.8153 29.1647 21.6213 29.1442 22.4145 29.1045C21.6356 30.2941 20.8492 31.3822 20.0664 32.351ZM28.2223 22.1972C28.757 23.5671 29.2077 24.8921 29.5655 26.1522C28.4058 26.4497 27.1536 26.6892 25.8342 26.8671C26.257 26.1138 26.6664 25.3511 27.0622 24.5795C27.4646 23.7952 27.8514 23.0009 28.2223 22.1972ZM25.582 23.6199C24.9761 24.8029 24.3361 25.9635 23.6631 27.0998C22.444 27.1968 21.2222 27.245 20 27.2443C18.7552 27.2443 17.5444 27.2008 16.3784 27.1158C15.6878 25.9821 15.0357 24.8195 14.4233 23.6305H14.4234C13.8139 22.4477 13.2446 21.2393 12.7167 20.008C13.2433 18.7763 13.8109 17.5674 14.4183 16.3837L14.4181 16.3839C15.0253 15.1999 15.6723 14.0423 16.3577 12.9135C17.5472 12.8124 18.767 12.7597 19.9998 12.7597H20C21.2384 12.7597 22.4598 12.8129 23.6491 12.9148C24.3275 14.0418 24.9704 15.1955 25.5764 16.3736C26.1858 17.5546 26.7609 18.7577 27.3008 19.9808C26.7665 21.2164 26.1932 22.4302 25.582 23.6199ZM29.107 2.17272C30.4464 3.04097 30.9673 6.54227 30.1258 11.1338C30.072 11.4267 30.0117 11.7251 29.9461 12.0277C28.2864 11.5971 26.4844 11.2769 24.5977 11.078C23.4986 9.3188 22.3597 7.71944 21.2164 6.33487C21.516 6.01024 21.8228 5.69403 22.1364 5.38653C25.0895 2.49814 27.8495 1.35767 29.107 2.17272ZM20 15.9475C21.9727 15.9475 23.5719 17.745 23.5719 19.9621C23.5719 22.1793 21.9727 23.9768 20 23.9768C18.0273 23.9768 16.4281 22.1793 16.4281 19.9621C16.4281 17.745 18.0273 15.9475 20 15.9475Z" fill="#00D8FF"/>
</svg>
