<svg width="40" height="40" viewBox="0 0 40 40" fill="none" xmlns="http://www.w3.org/2000/svg">
<path d="M27.7158 27.9357C29.1919 27.7747 30.3117 26.4343 30.2608 24.8257C30.21 23.2172 28.9373 21.9303 27.4103 21.9303H27.3086C25.7305 21.9839 24.5089 23.378 24.5598 25.0401C24.6108 25.8444 24.9161 26.5415 25.3742 27.024C23.6436 30.6166 20.9967 33.2439 17.0264 35.4423C14.3286 36.9436 11.5291 37.4799 8.72953 37.1046C6.4389 36.7828 4.65734 35.7106 3.53734 33.9409C1.90859 31.3136 1.75594 28.4717 3.13031 25.63C4.0975 23.5924 5.62437 22.0911 6.59156 21.3404C6.38797 20.6434 6.0825 19.4638 5.92984 18.606C-1.45094 24.236 -0.687346 31.8499 1.55234 35.4423C3.23203 38.1234 6.6425 39.7855 10.4092 39.7855C11.4272 39.7855 12.4452 39.6782 13.4633 39.4103C19.9787 38.0697 24.9162 33.9946 27.7158 27.9357ZM36.6745 21.2869C32.8059 16.5147 27.105 13.8874 20.5895 13.8874H19.7752C19.317 12.9223 18.3498 12.2788 17.2809 12.2788H17.1791C15.6012 12.3324 14.3797 13.7265 14.4305 15.3888C14.4814 16.9973 15.7539 18.2842 17.2809 18.2842H17.3827C18.5025 18.2305 19.4697 17.4799 19.8769 16.4611H20.7931C24.6617 16.4611 28.3266 17.6407 31.6353 19.9463C34.1803 21.7158 36.0128 24.0215 37.0308 26.8096C37.8961 29.0616 37.8451 31.26 36.9289 33.1368C35.5037 35.9785 33.1114 37.5335 29.9555 37.5335C27.9194 37.5335 25.9852 36.89 24.967 36.4074C24.4072 36.9436 23.3891 37.8015 22.6764 38.3378C24.8653 39.4101 27.105 40 29.2428 40C34.1294 40 37.7434 37.1581 39.1178 34.3164C40.5939 31.2063 40.492 25.8444 36.6745 21.2869ZM10.8164 28.847C10.8673 30.4557 12.1398 31.7424 13.6669 31.7424H13.7687C15.3467 31.6889 16.5683 30.2947 16.5173 28.6325C16.4666 27.0239 15.1939 25.7371 13.6669 25.7371H13.5652C13.4633 25.7371 13.3105 25.7371 13.2089 25.7906C11.1219 22.1446 10.2566 18.1769 10.562 13.8873C10.7655 10.6701 11.7836 7.88186 13.5652 5.57617C15.0412 3.59225 17.8917 2.62712 19.8261 2.57363C25.2216 2.46632 27.512 9.54401 27.6648 12.3859C28.3266 12.5467 29.4464 12.9221 30.21 13.1903C29.5991 4.50406 24.5089 0 19.6225 0C15.0412 0 10.8164 3.48527 9.13656 8.6327C6.79515 15.4959 8.32218 22.0911 11.1727 27.2921C10.9183 27.6674 10.7655 28.2573 10.8164 28.8472V28.847Z" fill="#764ABC"/>
</svg>
