<svg width="40" height="40" viewBox="0 0 40 40" fill="none" xmlns="http://www.w3.org/2000/svg">
<path d="M33.3333 26.8156C30.4444 26.8156 28 28.6034 27.1111 31.2849H17.7778C17.7778 29.7207 17.3333 28.3799 16.6667 27.2626L32.4444 10.9497C33.1111 10.9497 33.7778 11.1732 34.4444 11.1732C37.5556 11.1732 40 8.71508 40 5.58659C40 2.4581 37.5556 0 34.4444 0C31.3333 0 28.8889 2.4581 28.8889 5.58659C28.8889 6.25698 29.1111 7.15084 29.3333 7.82123L13.7778 23.9106C12.4444 22.7933 10.6667 22.3464 8.88889 22.3464V12.9609C11.5556 12.067 13.3333 9.60894 13.3333 6.70391C13.3333 2.90503 10.4444 0 6.66667 0C2.88889 0 0 2.90503 0 6.70391C0 9.60894 1.77778 12.067 4.44444 12.9609V23.4637C1.77778 25.0279 0 27.933 0 31.0615C0 35.9777 4 40 8.88889 40C12.2222 40 15.1111 38.2123 16.4444 35.5307H26.8889C27.7778 37.9888 30.2222 40 33.1111 40C36.6667 40 39.7778 37.095 39.7778 33.2961C40 29.7207 36.8889 26.8156 33.3333 26.8156Z" fill="#BF4242"/>
</svg>
