<svg width="40" height="40" viewBox="0 0 40 40" fill="none" xmlns="http://www.w3.org/2000/svg">
<path d="M5.33333 0C3.91885 0 2.56229 0.526784 1.5621 1.46447C0.561903 2.40215 0 3.67392 0 5V35C0 36.3261 0.561903 37.5979 1.5621 38.5355C2.56229 39.4732 3.91885 40 5.33333 40H34.6667C36.0812 40 37.4377 39.4732 38.4379 38.5355C39.4381 37.5979 40 36.3261 40 35V5C40 3.67392 39.4381 2.40215 38.4379 1.46447C37.4377 0.526784 36.0812 0 34.6667 0L5.33333 0ZM18.6667 5H21.3333C22.0406 5 22.7189 5.26339 23.219 5.73223C23.719 6.20107 24 6.83696 24 7.5V15C24 15.663 23.719 16.2989 23.219 16.7678C22.7189 17.2366 22.0406 17.5 21.3333 17.5H18.6667C17.9594 17.5 17.2811 17.2366 16.781 16.7678C16.281 16.2989 16 15.663 16 15V7.5C16 6.83696 16.281 6.20107 16.781 5.73223C17.2811 5.26339 17.9594 5 18.6667 5ZM5.33333 7.5C5.33333 6.83696 5.61428 6.20107 6.11438 5.73223C6.61448 5.26339 7.29276 5 8 5H10.6667C11.3739 5 12.0522 5.26339 12.5523 5.73223C13.0524 6.20107 13.3333 6.83696 13.3333 7.5V25C13.3333 25.663 13.0524 26.2989 12.5523 26.7678C12.0522 27.2366 11.3739 27.5 10.6667 27.5H8C7.29276 27.5 6.61448 27.2366 6.11438 26.7678C5.61428 26.2989 5.33333 25.663 5.33333 25V7.5ZM29.3333 5H32C32.7072 5 33.3855 5.26339 33.8856 5.73223C34.3857 6.20107 34.6667 6.83696 34.6667 7.5V32.5C34.6667 33.163 34.3857 33.7989 33.8856 34.2678C33.3855 34.7366 32.7072 35 32 35H29.3333C28.6261 35 27.9478 34.7366 27.4477 34.2678C26.9476 33.7989 26.6667 33.163 26.6667 32.5V7.5C26.6667 6.83696 26.9476 6.20107 27.4477 5.73223C27.9478 5.26339 28.6261 5 29.3333 5Z" fill="#CD2626"/>
</svg>
