<svg width="30" height="30" viewBox="0 0 30 30" fill="none" xmlns="http://www.w3.org/2000/svg">
<path d="M15.001 0C6.74816 0 0.000976562 6.74719 0.000976562 15C0.000976562 23.2528 6.74816 30 15.001 30C23.2538 30 30.001 23.2528 30.001 15C30.001 6.74719 23.326 0 15.001 0ZM21.901 21.675C21.6019 22.1241 21.075 22.275 20.626 21.9722C17.101 19.8 12.6769 19.35 7.42316 20.5472C6.90098 20.7019 6.45098 20.3269 6.2991 19.8722C6.15285 19.35 6.5241 18.9009 6.97316 18.75C12.6769 17.475 17.6279 17.9972 21.5241 20.4C22.0519 20.625 22.1241 21.225 21.9 21.675H21.901ZM23.7019 17.5491C23.326 18.0769 22.6519 18.3019 22.1241 17.925C18.0769 15.4491 11.9241 14.7028 7.20285 16.2009C6.60191 16.3472 5.92316 16.05 5.77691 15.4481C5.62598 14.8481 5.92316 14.1741 6.5241 14.0231C12.0029 12.3722 18.75 13.2019 23.3991 16.0491C23.8529 16.2741 24.0779 17.025 23.7019 17.5481V17.5491ZM23.8538 13.35C19.0491 10.4972 11.026 10.2 6.45098 11.6259C5.70004 11.85 4.95191 11.4009 4.72691 10.7222C4.50285 9.975 4.95191 9.22312 5.62598 8.99813C10.9538 7.42219 19.7269 7.72406 25.2797 11.0241C25.9538 11.4 26.1769 12.2991 25.8019 12.9731C25.426 13.5009 24.5269 13.7241 23.8529 13.3491L23.8538 13.35Z" fill="black"/>
</svg>
