<svg width="40" height="40" viewBox="0 0 40 40" fill="none" xmlns="http://www.w3.org/2000/svg">
<path d="M5.06876 18.9371C9.86252 20.1362 14.9197 20.7135 20 20.6414C25.0804 20.713 30.1376 20.1353 34.9312 18.9357C38.6731 17.8971 40 16.7429 40 16.0786V11C38.6918 11.6235 37.2883 12.1391 35.8165 12.5371C30.7446 13.8296 25.3865 14.4597 20 14.3971C14.6139 14.4585 9.25635 13.8294 4.18348 12.54C2.71097 12.142 1.30733 11.6253 0 11V16.0714C0 16.7486 1.33092 17.8971 5.06876 18.9371Z" fill="#FFE600"/>
<path d="M5.06876 28.5157C6.76224 28.9753 8.50855 29.3295 10.2881 29.5743C13.488 30.0148 16.7408 30.2316 20 30.2214C23.2592 30.232 26.5119 30.0158 29.7119 29.5757C31.4914 29.3309 33.2378 28.9767 34.9312 28.5171C38.6731 27.4786 40 26.3243 40 25.66V20.8171C38.9186 21.2802 37.7821 21.6746 36.6034 21.9957C31.2753 23.3382 25.6513 23.9881 20 23.9143C14.3481 23.9858 8.72411 23.3335 3.39657 21.9886C2.21845 21.6666 1.08197 21.2723 0 20.81V25.6571C0 26.3229 1.33092 27.4729 5.06876 28.5157Z" fill="#FFE600"/>
<path d="M20 40C31.0409 40 40 37.5086 40 34.4371V30.3843C39.0163 30.8063 37.9857 31.1703 36.9186 31.4729L36.6034 31.5628C31.2763 32.9093 25.6523 33.5631 20 33.4928C14.3475 33.5651 8.72299 32.9113 3.39657 31.5628C3.28817 31.5343 3.18378 31.5014 3.0814 31.4729C2.0143 31.1703 0.983739 30.8063 0 30.3843V34.4371C0 37.5086 8.95915 40 20 40Z" fill="#FFE600"/>
<path d="M20 11.1257C31.0457 11.1257 40 8.63514 40 5.56286C40 2.49058 31.0457 0 20 0C8.9543 0 0 2.49058 0 5.56286C0 8.63514 8.9543 11.1257 20 11.1257Z" fill="#FFE600"/>
</svg>
