<svg width="40" height="40" viewBox="0 0 40 40" fill="none" xmlns="http://www.w3.org/2000/svg">
<path d="M22.9219 39.4285C22.9819 39.2927 23.1333 39.1985 23.2433 39.0842C24.9216 37.3242 26.6143 35.58 28.2698 33.7986C28.7879 33.3201 29.1882 32.7282 29.4395 32.0693C29.6907 31.4103 29.7861 30.7021 29.7182 30.0002C29.6662 29.6996 29.5981 29.402 29.514 29.1087C29.0626 29.5373 28.6426 29.9273 28.2198 30.3201C27.5628 30.9316 26.9085 31.5458 26.2458 32.1501C25.855 32.5486 25.3524 32.8192 24.8046 32.926C24.2568 33.0329 23.6895 32.9711 23.1776 32.7486C22.6593 32.5583 22.2085 32.2198 21.8809 31.7754C21.5533 31.331 21.3635 30.8001 21.3349 30.2487C21.3196 30.1778 21.299 30.1081 21.2735 30.0402C20.7693 30.4687 20.2865 30.863 19.808 31.2687L9.86199 39.697C9.79343 39.7556 9.71915 39.8284 9.65488 39.8856H22.9147L22.8947 39.8727C22.8233 39.8227 22.8605 39.5599 22.9219 39.4285Z" fill="#FFCEBF"/>
<path d="M9.04783 39.4285C9.16577 39.2749 9.30813 39.1417 9.46921 39.0342L23.2333 27.3559C24.1722 26.5588 25.1069 25.7574 26.0372 24.9517C26.1522 24.8716 26.2423 24.7607 26.2972 24.6317C26.5198 23.6619 26.5513 22.658 26.3901 21.6761C26.2472 21.7761 26.1701 21.819 26.1044 21.8889C24.9774 22.8975 23.8561 23.9146 22.7233 24.9174C22.3481 25.2951 21.8628 25.5441 21.3371 25.6286C20.8115 25.713 20.2726 25.6286 19.798 25.3874C19.3137 25.1588 18.9085 24.7913 18.6338 24.3316C18.359 23.8719 18.2273 23.3409 18.2553 22.8061V22.3432C18.0482 22.4946 17.8968 22.5961 17.7554 22.7104C12.2465 27.1217 6.73858 31.5296 1.23161 35.9343C0.983071 36.1328 0.685963 36.5757 0.360287 36.1457C0.0346118 35.7157 0.530267 35.5386 0.780237 35.3386C6.65097 30.6273 12.5246 25.9203 18.401 21.2175C19.358 20.4504 19.4209 20.129 18.7981 18.9105L18.4267 19.259C17.4083 20.2061 16.3784 21.1404 15.3756 22.1032C14.9643 22.5 14.4492 22.7724 13.8897 22.8888C13.3302 23.0053 12.7491 22.9611 12.2137 22.7614C11.6782 22.5617 11.2102 22.2146 10.8635 21.7601C10.5169 21.3057 10.3059 20.7625 10.2548 20.1933C10.0649 20.3361 9.90058 20.4404 9.74489 20.5618L1.03164 27.3159C0.881357 27.4633 0.709975 27.5876 0.523125 27.6845C0.382104 27.7271 0.230671 27.7196 0.0946045 27.6631V39.8927H9.03069C8.99746 39.8193 8.98172 39.7391 8.9847 39.6586C8.98767 39.578 9.00928 39.4993 9.04783 39.4285Z" fill="#FFCEBF"/>
<path d="M33.1878 0.605276C32.945 1.40097 32.7093 2.19809 32.4965 3.00235C32.2999 3.5707 32.3227 4.19201 32.5606 4.74437C32.7984 5.29673 33.2341 5.74028 33.782 5.98798C35.4581 6.8691 37.3469 7.26489 39.2357 7.13081V0.740986C39.2147 0.60089 39.2225 0.457988 39.2585 0.320998C39.2985 0.243508 39.349 0.171887 39.4085 0.108147H33.1821C33.2778 0.219572 33.2449 0.415281 33.1878 0.605276Z" fill="#FF6196"/>
<path d="M20.6822 14.332C20.6526 15.0452 20.4031 15.7318 19.968 16.2977C18.4125 18.3058 16.6261 20.124 14.6457 21.7147C14.3264 22.0103 13.9216 22.1972 13.4895 22.2485C13.0573 22.2999 12.62 22.213 12.2403 22.0004C11.8624 21.8389 11.5437 21.5643 11.3281 21.2144C11.1125 20.8645 11.0105 20.4564 11.0362 20.0462C11.0819 19.5423 11.2911 19.0673 11.6318 18.6933C13.8463 16.5816 16.2456 14.6725 18.801 12.9892C18.9683 12.858 19.1727 12.7827 19.3852 12.7739C19.5977 12.7652 19.8076 12.8235 19.9851 12.9406C20.2185 13.0855 20.4071 13.2923 20.5302 13.5379C20.6532 13.7835 20.7058 14.0583 20.6822 14.332Z" fill="#FF87AF"/>
<path d="M18.9709 22.9904C18.9378 22.6746 18.9783 22.3554 19.0894 22.058C19.2004 21.7605 19.3789 21.4929 19.6109 21.2761C21.7792 19.276 24.1055 17.4545 26.5672 15.8291C26.6415 15.782 26.71 15.7348 26.7914 15.6863C27.0065 15.531 27.267 15.4517 27.5321 15.4607C27.7971 15.4698 28.0516 15.5667 28.2556 15.7363C28.4529 15.9034 28.5925 16.1286 28.6545 16.3796C28.7166 16.6307 28.6979 16.895 28.6012 17.1348C28.2898 18.1722 27.715 19.1112 26.9329 19.8604C25.3444 21.4255 23.7252 22.9591 22.0763 24.4603C21.828 24.7157 21.5018 24.8813 21.1491 24.9309C20.7963 24.9806 20.4371 24.9115 20.1279 24.7346C19.8031 24.5658 19.5265 24.3171 19.3241 24.012C19.1217 23.7069 19.0002 23.3553 18.9709 22.9904Z" fill="#FF87AF"/>
<path d="M29.2783 23.9346C28.8783 24.3632 28.4669 24.7717 28.0827 25.2103C27.9672 25.3798 27.8713 25.5619 27.797 25.7531C28.0084 25.816 28.2555 25.9817 28.4269 25.9231C29.2997 25.6303 30.151 25.2789 31.1095 24.9089C30.9009 25.3889 30.7438 25.8317 30.5224 26.2374C29.6103 27.7704 28.4681 29.1542 27.1357 30.3402C26.6291 30.8287 26.1029 31.2958 25.5573 31.7415C25.2683 31.9814 24.9209 32.1401 24.5504 32.2016C24.18 32.263 23.7999 32.2249 23.449 32.0912C23.0981 31.9576 22.789 31.733 22.5533 31.4407C22.3176 31.1483 22.1639 30.7986 22.1077 30.4273C22.0848 30.2208 22.103 30.0119 22.1614 29.8126C22.2198 29.6132 22.317 29.4274 22.4477 29.2659C24.3915 27.1549 26.6129 25.3177 29.0512 23.8046C29.0808 23.7931 29.1122 23.7868 29.144 23.7861L29.2783 23.9346Z" fill="#FF87AF"/>
<path d="M32.555 18.2448L34.999 7.38794L36.7131 7.78936L35.8289 10.4764C35.0033 12.9764 34.1677 15.4763 33.3621 17.9791C33.2049 18.4419 32.9993 18.5276 32.555 18.2448Z" fill="#FF6196"/>
<path d="M29.7953 24.6303C30.0539 23.6432 30.311 22.7304 30.5281 21.8075C30.7397 20.9126 31.1422 20.074 31.708 19.349C32.0551 18.8933 32.445 19.0747 32.8436 19.1733C33.2121 19.2633 33.3049 19.5333 33.3206 19.8876C33.3788 20.8673 33.0804 21.8349 32.4807 22.6118C31.7668 23.4969 30.844 24.1906 29.7953 24.6303Z" fill="#FF6196"/>
<path d="M39.9813 1.27811C40.0026 0.959958 39.9945 0.640513 39.957 0.323854C39.9275 0.235403 39.8692 0.159431 39.7913 0.108146C39.7279 0.0565816 39.6537 0.0199622 39.5742 0.00100587C39.5285 -0.00756531 39.4642 0.0395761 39.4028 0.106717C39.3433 0.170458 39.2928 0.242079 39.2528 0.319568C39.2167 0.456559 39.209 0.599461 39.2299 0.739556V7.12795C37.3411 7.26203 35.4524 6.86624 33.7763 5.98512C33.2283 5.73742 32.7927 5.29388 32.5549 4.74152C32.317 4.18915 32.2942 3.56785 32.4907 2.99949C32.7036 2.19523 32.9393 1.39811 33.1821 0.602418C33.2392 0.412423 33.2721 0.216714 33.1821 0.105289C33.132 0.0510456 33.0629 0.0182821 32.9893 0.0138627C32.8949 0.0148806 32.8035 0.0470183 32.7293 0.105289C32.6225 0.169188 32.5374 0.263764 32.485 0.37671C32.1993 1.23383 31.9479 2.09952 31.7294 2.97378C31.6469 3.3183 31.6247 3.6745 31.6637 4.02661C31.719 4.66369 31.9559 5.27154 32.3463 5.77798C32.7367 6.28441 33.2643 6.66816 33.8663 6.88367C34.1363 6.99652 34.2948 7.10795 34.2191 7.46365C34.1148 7.91507 34.0134 8.36649 33.9106 8.81933C33.2107 11.8878 32.5145 14.9577 31.8222 18.0291C31.8027 18.166 31.7425 18.2939 31.6494 18.3962C31.1931 18.7589 30.8097 19.2049 30.5195 19.7105C30.1498 20.3776 29.8939 21.1018 29.7625 21.8533C29.7373 22.0929 29.6507 22.3221 29.511 22.5185C29.3714 22.7149 29.1835 22.872 28.9654 22.9746C28.3698 23.2761 27.8227 23.6661 27.1614 24.0718C27.2055 23.2764 27.1969 22.4789 27.1357 21.6847C27.0853 21.4404 27.096 21.1874 27.1668 20.9482C27.2375 20.709 27.3662 20.4909 27.5413 20.3133C28.4125 19.4502 29.0335 18.367 29.3383 17.1791C29.4293 16.9037 29.4542 16.6108 29.4111 16.324C29.368 16.0372 29.258 15.7646 29.09 15.5281C28.922 15.2917 28.7008 15.0981 28.4442 14.9631C28.1875 14.828 27.9027 14.7552 27.6127 14.7506C27.1433 14.7454 26.6823 14.8764 26.2858 15.1277C24.9228 16.0586 23.5835 17.0236 22.2691 18.0219C21.4878 18.6105 20.7521 19.2619 19.9951 19.879C19.9624 19.844 19.9342 19.8051 19.9108 19.7633C19.8963 19.6581 19.868 19.5553 19.8265 19.4576C19.1937 18.4805 19.6323 17.7705 20.3193 17.0405C21.0351 16.2901 21.4306 15.2905 21.4221 14.2535C21.4442 13.7251 21.2788 13.2059 20.955 12.7878C20.7825 12.5756 20.5699 12.3994 20.3293 12.2692C19.9876 12.0822 19.5969 12.0041 19.2096 12.0455C18.8223 12.0869 18.4569 12.2457 18.1624 12.5007L17.7639 12.7864C16.854 13.4378 15.9327 14.072 15.0571 14.7692C13.7788 15.7898 12.528 16.8444 11.3061 17.9319C10.7347 18.4362 10.3177 19.1248 9.72487 19.5933C6.6338 22.0347 3.50989 24.4317 0.397401 26.8445C0.290377 26.9084 0.19197 26.9857 0.104578 27.0745C0.0955818 27.0875 0.0879246 27.1014 0.0817238 27.116C0.0160174 27.2688 -0.0396902 27.5217 0.0374435 27.6145C0.0563512 27.6347 0.0792033 27.6507 0.104578 27.6617C0.240645 27.7181 0.392078 27.7257 0.533099 27.6831C0.719949 27.5861 0.891331 27.4619 1.04161 27.3145L9.75486 20.5604C9.91056 20.439 10.0748 20.329 10.2648 20.1919C10.3159 20.7611 10.5269 21.3043 10.8735 21.7587C11.2201 22.2132 11.6882 22.5603 12.2237 22.76C12.7591 22.9597 13.3401 23.0039 13.8996 22.8874C14.4591 22.7709 14.9743 22.4986 15.3856 22.1018C16.3855 21.139 17.4182 20.2047 18.4367 19.2576L18.8081 18.909C19.4309 20.1276 19.368 20.449 18.411 21.2161C12.5298 25.9227 6.65285 30.6301 0.780213 35.3386C0.530242 35.5386 0.0360152 35.72 0.360263 36.1457C0.68451 36.5714 0.983046 36.1328 1.23159 35.9343C6.74141 31.5335 12.2474 27.1269 17.7496 22.7147C17.8925 22.6004 18.0425 22.4989 18.2496 22.3475V22.8104C18.2216 23.3452 18.3533 23.8762 18.628 24.3359C18.9027 24.7956 19.308 25.1631 19.7922 25.3917C20.2669 25.6329 20.8058 25.7173 21.3314 25.6328C21.857 25.5484 22.3424 25.2994 22.7176 24.9217C23.8503 23.9218 24.9716 22.9018 26.0986 21.8932C26.1701 21.829 26.2529 21.7804 26.3843 21.6804C26.5456 22.6623 26.514 23.6662 26.2915 24.636C26.2365 24.765 26.1465 24.8759 26.0315 24.956C25.1002 25.7608 24.1655 26.5622 23.2276 27.3602L9.46918 39.0399C9.3081 39.1474 9.16575 39.2806 9.0478 39.4342C9.01016 39.5042 8.98905 39.582 8.98608 39.6615C8.98311 39.741 8.99836 39.8201 9.03066 39.8927C9.09521 39.9411 9.16981 39.9743 9.24894 39.9899C9.32807 40.0055 9.40969 40.003 9.48775 39.9827C9.54935 39.9649 9.60603 39.9331 9.65345 39.8899C9.72487 39.8327 9.79629 39.7599 9.86056 39.7013L19.8065 31.273C20.285 30.8673 20.7678 30.4673 21.2721 30.0444C21.2976 30.1124 21.3181 30.1821 21.3335 30.253C21.362 30.8044 21.5519 31.3353 21.8794 31.7797C22.207 32.2241 22.6579 32.5625 23.1761 32.7529C23.6881 32.9753 24.2554 33.0372 24.8032 32.9303C25.351 32.8235 25.8535 32.5529 26.2443 32.1544C26.9071 31.5501 27.5613 30.9359 28.2184 30.3244C28.6469 29.9316 29.0611 29.5373 29.5125 29.113C29.5966 29.4063 29.6648 29.7038 29.7168 30.0044C29.7824 30.7041 29.6859 31.4095 29.4347 32.0658C29.1835 32.7221 28.7844 33.3116 28.2684 33.7886C26.6129 35.5714 24.9202 37.3157 23.2418 39.0742C23.1318 39.1885 22.9804 39.2828 22.9204 39.4185C22.8605 39.5542 22.8219 39.8199 22.8933 39.877L22.9133 39.8899C23.0631 39.9627 23.2315 39.9881 23.3961 39.9627C23.4422 39.9533 23.4833 39.9274 23.5118 39.8899C23.5518 39.8485 23.5904 39.797 23.6289 39.7585C24.9888 38.3528 26.3558 36.9543 27.7056 35.5386C28.2504 34.9865 28.7627 34.4031 29.2397 33.7915C29.8617 33.1028 30.2741 32.2509 30.4285 31.3358C30.5829 30.4207 30.4727 29.4805 30.111 28.6259C30.0721 28.4354 30.1101 28.2372 30.2167 28.0745C30.3096 27.9145 30.4124 27.7588 30.5181 27.6045C30.8563 27.1653 31.138 26.6854 31.3566 26.176C31.7789 24.9257 32.4272 23.7636 33.2692 22.7475C33.6563 22.2567 33.9226 21.6818 34.0467 21.0691C34.1707 20.4565 34.1491 19.8232 33.9834 19.2205C33.9249 18.9913 33.9249 18.7511 33.9834 18.5219C34.7062 16.2834 35.4504 14.052 36.1874 11.8192L37.173 8.8279L37.4773 7.90364C38.1258 7.90364 38.7371 7.89078 39.3456 7.90364C39.8513 7.91793 40.0056 7.68079 39.9998 7.18938C39.9699 5.218 39.9813 3.24806 39.9813 1.27811ZM14.6457 21.7147C14.3264 22.0103 13.9216 22.1972 13.4894 22.2485C13.0573 22.2999 12.62 22.213 12.2403 22.0004C11.8623 21.8389 11.5437 21.5643 11.3281 21.2144C11.1124 20.8645 11.0105 20.4564 11.0361 20.0462C11.0819 19.5423 11.2911 19.0673 11.6318 18.6933C13.8463 16.5816 16.2456 14.6725 18.8009 12.9892C18.9404 12.8906 19.0991 12.8225 19.2666 12.7892C19.379 12.7685 19.4942 12.7685 19.6066 12.7892C19.7411 12.8154 19.8696 12.8668 19.9851 12.9406C20.2187 13.0857 20.4075 13.2926 20.5305 13.5385C20.6536 13.7844 20.7061 14.0595 20.6821 14.3335C20.6525 15.0467 20.4031 15.7333 19.9679 16.2991C18.4123 18.3068 16.626 20.1245 14.6457 21.7147ZM22.0734 24.4703C21.8251 24.7257 21.4989 24.8913 21.1462 24.9409C20.7934 24.9906 20.4342 24.9215 20.1251 24.7446C19.7996 24.5754 19.5226 24.3261 19.3202 24.0202C19.1178 23.7142 18.9966 23.3618 18.9681 22.9961C18.9349 22.6803 18.9754 22.3612 19.0865 22.0637C19.1975 21.7663 19.376 21.4986 19.608 21.2818C21.7763 19.2818 24.1026 17.4602 26.5643 15.8348C26.6386 15.7877 26.7071 15.7406 26.7886 15.692C27.0036 15.5367 27.2641 15.4574 27.5292 15.4665C27.7942 15.4755 28.0487 15.5724 28.2527 15.742C28.45 15.9092 28.5896 16.1343 28.6517 16.3853C28.7137 16.6364 28.6951 16.9007 28.5983 17.1405C28.2869 18.1779 27.7121 19.117 26.93 19.8662C25.3544 21.4404 23.7161 22.9561 22.0763 24.4646L22.0734 24.4703ZM30.5167 26.2431C29.6058 27.7737 28.4656 29.1555 27.1357 30.3402C26.6291 30.8287 26.1029 31.2958 25.5573 31.7415C25.2683 31.9814 24.9208 32.1401 24.5504 32.2016C24.18 32.263 23.7999 32.2249 23.449 32.0912C23.0981 31.9576 22.789 31.733 22.5533 31.4407C22.3176 31.1483 22.1639 30.7986 22.1077 30.4273C22.0848 30.2208 22.103 30.0119 22.1614 29.8126C22.2197 29.6132 22.317 29.4274 22.4476 29.2659C24.3914 27.1549 26.6129 25.3177 29.0511 23.8046C29.0808 23.7931 29.1122 23.7868 29.144 23.7861L29.2868 23.9289C28.8869 24.3575 28.4755 24.766 28.0913 25.2046C27.9757 25.3741 27.8799 25.5562 27.8056 25.7474C28.017 25.8103 28.2641 25.976 28.4355 25.9174C29.1254 25.686 29.8039 25.4174 30.531 25.1317L31.118 24.9032C30.8981 25.3889 30.7409 25.8317 30.5195 26.2374L30.5167 26.2431ZM32.4779 22.6218C31.9451 23.3002 31.2772 23.8606 30.5167 24.2675C30.2815 24.3989 30.0401 24.5217 29.7925 24.636C30.0467 23.6632 30.301 22.7618 30.5167 21.8504L30.5253 21.8132C30.7369 20.9183 31.1393 20.0797 31.7051 19.3547C32.0522 18.899 32.4422 19.0805 32.8407 19.179C33.2092 19.269 33.3021 19.539 33.3178 19.8933C33.3764 20.8722 33.0791 21.8392 32.4807 22.6161L32.4779 22.6218ZM35.8203 10.4793C34.9947 12.9792 34.1591 15.4791 33.3535 17.9819C33.2021 18.4519 32.9964 18.5376 32.5522 18.2548L34.6705 8.83647L34.9962 7.3908L36.7102 7.79222L36.366 8.83647L35.8203 10.4793Z" fill="black"/>
</svg>
