<svg width="30" height="30" viewBox="0 0 30 30" fill="none" xmlns="http://www.w3.org/2000/svg">
<path d="M15.001 0C6.7142 0 0.000976562 6.71419 0.000976562 15C0.000976562 23.2858 6.71517 30 15.001 30C23.2878 30 30.001 23.2858 30.001 15C30.001 6.71419 23.2868 0 15.001 0ZM22.3684 10.2765L19.9065 21.8777C19.7245 22.7003 19.2348 22.8997 18.5516 22.5126L14.8016 19.7487L12.9929 21.4906C12.7936 21.69 12.6242 21.8594 12.2371 21.8594L12.5032 18.0426L19.4526 11.7639C19.7555 11.4977 19.3858 11.3468 18.9861 11.6129L10.3974 17.0197L6.69582 15.8642C5.89162 15.6106 5.87323 15.06 6.86517 14.6729L21.3271 9.09581C21.9987 8.85387 22.5852 9.25935 22.3674 10.2755L22.3684 10.2765Z" fill="black"/>
</svg>
