<svg width="40" height="40" viewBox="0 0 40 40" fill="none" xmlns="http://www.w3.org/2000/svg">
<path d="M38.1257 0H1.87429C0.839146 0 0 0.839146 0 1.87429V38.1257C0 39.1609 0.839146 40 1.87429 40H38.1257C39.1609 40 40 39.1609 40 38.1257V1.87429C40 0.839146 39.1609 0 38.1257 0Z" fill="#3178C6"/>
<path fill-rule="evenodd" clip-rule="evenodd" d="M23.2071 31.0843V35.4671C24.0034 35.8602 24.8521 36.1368 25.7271 36.2886C26.7382 36.4752 27.7646 36.5671 28.7928 36.5629C29.7949 36.5676 30.7948 36.4666 31.7757 36.2614C32.6564 36.0835 33.4966 35.7445 34.2542 35.2614C34.9576 34.8074 35.5373 34.186 35.9414 33.4529C36.6651 31.9347 36.7606 30.1924 36.2071 28.6043C35.9735 28.0104 35.6255 27.4682 35.1828 27.0086C34.7076 26.5198 34.1679 26.0983 33.5785 25.7557C32.9 25.3583 32.195 25.008 31.4685 24.7071C30.8971 24.47 30.3828 24.2395 29.9257 24.0157C29.5196 23.8213 29.1311 23.5924 28.7642 23.3314C28.4769 23.13 28.2274 22.8795 28.0271 22.5914C27.854 22.3299 27.7639 22.0222 27.7685 21.7086C27.7647 21.4199 27.8451 21.1365 28 20.8929C28.1681 20.6379 28.3924 20.4248 28.6557 20.27C28.9775 20.0805 29.3277 19.944 29.6928 19.8657C30.1411 19.7661 30.5993 19.7182 31.0585 19.7229C31.4447 19.7242 31.8304 19.7519 32.2128 19.8057C32.6258 19.8615 33.0344 19.946 33.4357 20.0586C33.8438 20.1717 34.243 20.3149 34.63 20.4871C35.0054 20.6545 35.3646 20.8563 35.7028 21.09V17C34.9987 16.7336 34.2685 16.5421 33.5242 16.4286C32.6255 16.2978 31.7181 16.2362 30.81 16.2443C29.8173 16.2389 28.8275 16.3516 27.8614 16.58C26.9882 16.7795 26.1579 17.1342 25.41 17.6271C24.7152 18.0899 24.1416 18.7126 23.7371 19.4429C23.3085 20.2538 23.0964 21.1617 23.1214 22.0786C23.0897 23.2911 23.4891 24.4756 24.2485 25.4214C25.1802 26.4701 26.3551 27.2741 27.67 27.7629C28.27 28.0105 28.8295 28.2529 29.3485 28.49C29.8168 28.6984 30.267 28.9454 30.6942 29.2286C31.0389 29.4528 31.3415 29.7356 31.5885 30.0643C31.8057 30.3624 31.9209 30.7226 31.9171 31.0914C31.9191 31.3678 31.8481 31.6398 31.7114 31.88C31.5595 32.1381 31.346 32.3546 31.09 32.51C30.7696 32.7053 30.4192 32.8462 30.0528 32.9271C29.5756 33.0338 29.0875 33.0842 28.5985 33.0771C27.639 33.0754 26.6871 32.9062 25.7857 32.5771C24.844 32.2373 23.9707 31.7317 23.2071 31.0843ZM15.8442 20.1729H21.5585V16.5629H5.62567V20.1729H11.3142V36.25H15.8442V20.1729Z" fill="white"/>
</svg>
