<svg width="40" height="40" viewBox="0 0 40 40" fill="none" xmlns="http://www.w3.org/2000/svg">
<path d="M20 0L40 9.99838V30.0016L20 40L0 30.0016V9.99838L20 0Z" fill="white"/>
<path d="M36.4301 29.308L20.6642 37.1984V31.0622L30.4906 26.2798L36.4301 29.308ZM37.5094 28.4476V11.9594L31.7434 14.9007V25.506L37.5094 28.4476ZM3.50936 29.3079L19.2755 37.192V31.0555L9.44905 26.2798L3.50936 29.308V29.3079ZM2.43015 28.4476V11.9594L8.19624 14.9007V25.506L2.43015 28.4476ZM3.10202 10.8922L19.2755 2.80806V8.74453L8.91327 13.7802L8.83014 13.8203L3.10202 10.8921V10.8922ZM36.8301 10.8922L20.6642 2.80792V8.7444L31.0189 13.7867L31.1019 13.8268L36.8301 10.892V10.8922Z" fill="#8ED6FB"/>
<path d="M19.2755 29.6615L9.58484 24.9457V15.6145L19.2755 20.557V29.6615ZM20.6642 29.6615L30.3548 24.9525V15.6145L20.6642 20.557V29.6615ZM10.2339 14.5339L19.9698 9.8049L29.698 14.5339L19.9698 19.4964L10.2339 14.5339Z" fill="#1C78C0"/>
</svg>
