<svg width="40" height="40" viewBox="0 0 40 40" fill="none" xmlns="http://www.w3.org/2000/svg">
<path d="M19.8559 0C9.70139 0 10.3354 4.42662 10.3354 4.42662L10.3467 9.01273H20.037V10.3896H6.49787C6.49787 10.3896 0 9.64881 0 19.9482C0 30.2479 5.6715 29.8826 5.6715 29.8826H9.05624V25.1032C9.05624 25.1032 8.87377 19.402 14.6372 19.402H24.2482C24.2482 19.402 29.648 19.4897 29.648 14.156V5.33713C29.648 5.33713 30.4681 0 19.8559 0ZM14.5127 3.08407C14.7417 3.08386 14.9685 3.12905 15.1801 3.21704C15.3917 3.30503 15.5839 3.4341 15.7458 3.59687C15.9077 3.75963 16.0361 3.9529 16.1237 4.1656C16.2112 4.3783 16.2562 4.60627 16.256 4.83645C16.2562 5.06664 16.2112 5.2946 16.1237 5.50731C16.0361 5.72001 15.9077 5.91327 15.7458 6.07604C15.5839 6.2388 15.3917 6.36787 15.1801 6.45587C14.9685 6.54386 14.7417 6.58904 14.5127 6.58884C14.2837 6.58904 14.0569 6.54386 13.8453 6.45587C13.6337 6.36787 13.4415 6.2388 13.2796 6.07604C13.1176 5.91327 12.9892 5.72001 12.9017 5.50731C12.8142 5.2946 12.7692 5.06664 12.7694 4.83645C12.7692 4.60627 12.8142 4.3783 12.9017 4.1656C12.9892 3.9529 13.1176 3.75963 13.2796 3.59687C13.4415 3.4341 13.6337 3.30503 13.8453 3.21704C14.0569 3.12905 14.2837 3.08386 14.5127 3.08407Z" fill="url(#paint0_linear_5_16)"/>
<path d="M20.1443 40C30.2988 40 29.6647 35.5734 29.6647 35.5734L29.6535 30.9874H19.963V29.6106H33.5021C33.5021 29.6106 40 30.3514 40 20.0517C40 9.75211 34.3285 10.1174 34.3285 10.1174H30.9438V14.8967C30.9438 14.8967 31.1262 20.5978 25.3628 20.5978H15.7518C15.7518 20.5978 10.352 20.5101 10.352 25.844V34.663C10.352 34.663 9.53208 40 20.1441 40H20.1443ZM25.4875 36.9163C25.2585 36.9165 25.0317 36.8713 24.8201 36.7833C24.6085 36.6953 24.4163 36.5662 24.2543 36.4035C24.0924 36.2407 23.964 36.0474 23.8765 35.8347C23.7889 35.622 23.744 35.3941 23.7442 35.1639C23.744 34.9337 23.7889 34.7057 23.8764 34.493C23.964 34.2802 24.0924 34.087 24.2543 33.9242C24.4162 33.7614 24.6085 33.6323 24.8201 33.5443C25.0317 33.4563 25.2585 33.4111 25.4875 33.4113C25.7165 33.4111 25.9432 33.4563 26.1548 33.5443C26.3664 33.6323 26.5587 33.7614 26.7206 33.9241C26.8825 34.0869 27.0109 34.2802 27.0985 34.4929C27.186 34.7056 27.231 34.9335 27.2307 35.1637C27.231 35.3939 27.186 35.6219 27.0985 35.8346C27.0109 36.0473 26.8825 36.2405 26.7206 36.4033C26.5587 36.5661 26.3664 36.6951 26.1548 36.7831C25.9432 36.8711 25.7165 36.9163 25.4875 36.9161V36.9163Z" fill="url(#paint1_linear_5_16)"/>
<defs>
<linearGradient id="paint0_linear_5_16" x1="3.84399" y1="3.59776" x2="23.7691" y2="23.2215" gradientUnits="userSpaceOnUse">
<stop stop-color="#387EB8"/>
<stop offset="1" stop-color="#366994"/>
</linearGradient>
<linearGradient id="paint1_linear_5_16" x1="16.0112" y1="16.2657" x2="37.4033" y2="36.3831" gradientUnits="userSpaceOnUse">
<stop stop-color="#FFE052"/>
<stop offset="1" stop-color="#FFC331"/>
</linearGradient>
</defs>
</svg>
